<svg width="140" height="32" viewBox="0 0 140 32" fill="none" xmlns="http://www.w3.org/2000/svg">
<g clip-path="url(#clip0)">
<path d="M15.5361 0.126233C17.4927 0.504931 19.4493 1.26233 21.2796 2.33531C21.4059 2.39842 21.469 2.58777 21.4059 2.65089C21.3428 2.714 21.2796 2.77712 21.1534 2.77712C17.4295 1.83037 13.9581 1.76726 11.0548 2.714C10.3605 2.84024 9.66624 3.15582 9.03507 3.4714C8.40391 3.78698 7.83586 4.16568 7.26781 4.54438C6.13172 5.36489 5.24809 6.31164 4.49069 7.38461C3.03902 9.53057 2.40785 12.2446 2.84967 15.0848C3.10213 16.5365 3.60706 17.9882 4.30134 19.3767C4.36446 19.5661 4.49069 19.7554 4.61693 19.8817L4.80628 20.1972L4.99562 20.5128C5.18497 20.8284 5.43744 21.2071 5.62679 21.5227C6.13172 22.1538 6.63665 22.8481 7.2047 23.4162C9.54 25.8777 12.6958 27.7081 15.8516 28.5917C17.4295 29.0335 19.0706 29.1598 20.5223 29.0335C21.2796 28.9704 21.9739 28.8442 22.6682 28.5917C23.2994 28.4024 23.9937 28.0868 24.5617 27.7081C26.897 26.2564 28.3487 23.6686 28.0962 20.7022C27.97 19.2505 27.4651 17.6726 26.6445 16.2209C26.4552 15.8422 26.2027 15.4635 25.9503 15.0848C25.6978 14.7061 25.4453 14.3905 25.1929 14.0749C24.6879 13.4438 24.0568 12.8126 23.4256 12.3077C20.7747 10.1617 17.2402 9.08876 14.3368 9.46745C12.8852 9.6568 11.6228 10.1617 10.8023 11.0454C9.9187 11.929 9.47689 13.1282 9.35065 14.5168C9.22442 15.9053 9.54 17.4201 10.1712 18.8087C10.4867 19.503 10.8654 20.1341 11.4335 20.7022C11.9384 21.2702 12.5696 21.8383 13.2639 22.3432C14.6524 23.2899 16.2303 23.9211 17.7451 23.9842C18.5025 24.0473 19.1968 23.9211 19.828 23.7318C20.4591 23.4793 21.0272 23.1637 21.4059 22.7219C22.2264 21.7751 22.542 20.3866 22.1633 18.9349C21.9739 18.1775 21.6583 17.4832 21.2165 16.789C20.7747 16.1578 20.2067 15.5266 19.5124 15.0848C18.1238 14.1381 16.4828 13.8225 15.1574 14.2643C13.895 14.643 13.2639 15.9053 13.5795 17.2939C13.7688 17.9882 14.1475 18.6824 14.6524 19.2505C15.2205 19.8185 15.9779 20.1972 16.6722 20.2604C17.3664 20.3866 18.1238 20.1972 18.5025 19.7554C18.8812 19.3136 19.0075 18.6193 18.6919 17.925C18.6288 17.7357 18.5025 17.6095 18.4394 17.4201C18.3763 17.2939 18.1869 17.1045 18.0607 16.9783C17.8082 16.7258 17.4296 16.5365 17.0509 16.4103C16.041 16.1578 15.9779 15.211 17.0509 15.4635C17.6189 15.5897 18.1869 15.8422 18.6919 16.284C18.9443 16.4734 19.1337 16.7258 19.3862 16.9783C19.5755 17.2308 19.7017 17.4832 19.828 17.7357C20.3329 18.8087 20.2698 19.9448 19.6386 20.6391C19.323 21.0177 18.8812 21.2702 18.4394 21.3964C17.9976 21.5227 17.4295 21.5858 16.8615 21.5227C15.7885 21.3964 14.5893 20.8915 13.7057 20.071C13.2639 19.6923 12.8221 19.1874 12.5696 18.6824C12.254 18.1775 12.0647 17.6726 11.8753 17.1677C11.5597 16.1578 11.6228 15.1479 12.0015 14.2643C12.3802 13.4438 13.0745 12.7495 14.0213 12.4339C15.7885 11.7396 18.2501 12.1183 20.3329 13.3807C21.4059 14.0118 22.2895 14.8955 23.0469 15.8422C23.7412 16.789 24.2461 17.8619 24.5617 18.8718C25.1297 20.9546 24.8142 23.0375 23.615 24.426C23.0469 25.1203 22.2264 25.6884 21.3428 26.0039C20.4591 26.3195 19.4493 26.5089 18.3763 26.4458C16.2935 26.3826 14.0213 25.5621 12.0647 24.2998C11.1179 23.6686 10.1712 22.9112 9.41377 22.0276C8.59326 21.2071 7.96209 20.1341 7.45716 19.1874C6.51042 17.2308 6.13172 15.2742 6.19484 13.4438C6.25795 11.6134 6.88912 9.84615 8.08833 8.58383C8.65637 7.95266 9.41377 7.38461 10.2343 7.00592C11.0548 6.62722 12.0015 6.37475 12.9483 6.1854C14.9049 5.86982 16.9877 6.05917 19.1337 6.62722C21.2796 7.19527 23.4887 8.33136 25.3822 9.84615C26.329 10.6035 27.2757 11.4872 28.0331 12.3708C28.4118 12.8757 28.7905 13.3176 29.1061 13.7594C29.4217 14.2012 29.7372 14.7061 30.0528 15.211C30.4946 16.0316 30.9365 16.8521 31.252 17.6726V0H14.8418C15.0942 0.0631164 15.2836 0.0631164 15.5361 0.126233Z" fill="#04245C"/>
<path d="M1.20908 4.85996C2.15583 3.53452 3.41815 2.46154 4.86983 1.64103C5.62723 1.19921 6.38462 0.883629 7.20514 0.568047C7.89942 0.315582 8.65681 0.126233 9.41421 0H0.199219V6.5641C0.514801 5.93294 0.830382 5.36489 1.20908 4.85996Z" fill="#008D34"/>
<path d="M31.1891 27.077C30.3686 28.7181 29.1063 30.0435 27.5915 31.0534C27.0234 31.4321 26.4554 31.6845 25.8242 32.0001H31.3153V26.8877C31.3153 26.9508 31.2522 27.0139 31.1891 27.077Z" fill="#008D34"/>
<path d="M4.7436 25.4992C3.9862 24.6787 3.29192 23.8582 2.66076 22.9746C2.34518 22.5327 2.09271 22.0909 1.77713 21.6491L1.58778 21.3335L1.39843 20.9548C1.2722 20.7024 1.14596 20.513 1.01973 20.2605C0.70415 19.6925 0.451684 19.0613 0.199219 18.4302V31.9371H15.0947C11.3077 30.801 7.64695 28.4657 4.7436 25.4992Z" fill="#008D34"/>
<path d="M43.6225 13.57H41.2872V1.89349H36.6797V0H48.23V1.89349H43.6225V13.57Z" fill="#04245C"/>
<path d="M60.7904 13.57H58.2658L56.8141 9.90927H51.5123L50.0606 13.57H47.8516L53.2796 0H55.4255L60.7904 13.57ZM52.2697 8.01578H55.9936L54.1001 3.28205L52.2697 8.01578Z" fill="#04245C"/>
<path d="M73.1615 13.57H70.6369L69.1852 9.90927H63.8834L62.4317 13.57H60.2227L65.6507 0H67.7966L73.1615 13.57ZM64.7039 8.01578H68.4278L66.5343 3.28205L64.7039 8.01578Z" fill="#04245C"/>
<path d="M79.9777 13.57H77.8318L72.6562 0H75.1809L79.031 10.1617L82.6917 0H84.9008L79.9777 13.57Z" fill="#04245C"/>
<path d="M88.3705 13.57H86.0352V0H88.3705V13.57Z" fill="#04245C"/>
<path d="M36.6797 17.9253H42.9913C45.6422 17.9253 47.2201 18.9352 47.2201 21.7123C47.2201 24.4894 45.4529 26.5722 42.297 26.5722H40.2142V32.0002H36.6797V17.9253ZM40.2142 24.4263C41.5396 24.4263 43.4331 24.3 43.4331 21.9647C43.4331 20.7024 42.4864 20.2606 41.3503 20.2606C40.9716 20.2606 40.5929 20.3237 40.2142 20.3868V24.4263Z" fill="#008D34"/>
<path d="M53.5335 17.9253H57.3205L62.6854 32.0002H58.8984L57.5098 28.4026H52.0187L50.6301 32.0002H48.1055L53.5335 17.9253ZM56.6893 26.1935L54.7958 21.2073L52.9023 26.1935H56.6893Z" fill="#008D34"/>
<path d="M64.5781 17.9253H68.3651V29.6649H74.6767V32.0002H64.5781V17.9253Z" fill="#008D34"/>
<path d="M76.6328 17.9253H80.3567V24.6787H80.4198L85.3429 17.9253H88.2462L83.7018 24.0476L89.3192 32.0002H84.8379L80.4198 25.2468H80.3567V32.0002H76.6328V17.9253Z" fill="#008D34"/>
</g>
<defs>
<clipPath id="clip0">
<rect width="139.2" height="32" fill="white" transform="translate(0.199219)"/>
</clipPath>
</defs>
</svg>
