<svg xmlns="http://www.w3.org/2000/svg" width="52" height="52" viewBox="0 0 52 52">
  <path id="Pfad_205" data-name="Pfad 205" d="M314.855-289.105l21.125-5.271a1.97,1.97,0,0,0,1.492-1.91v-19.526a3.937,3.937,0,0,0-3.937-3.937H291.409a3.937,3.937,0,0,0-3.937,3.937v19.526a1.969,1.969,0,0,0,1.491,1.91l21.125,5.271Z" transform="translate(-286.472 326.999)" fill="#6fff81" stroke="#240066" stroke-miterlimit="10" stroke-width="2"/>
  <path id="Rechteck_43" data-name="Rechteck 43" d="M1.417,0H16.3a1.417,1.417,0,0,1,1.417,1.417V6.25a0,0,0,0,1,0,0H0a0,0,0,0,1,0,0V1.417A1.417,1.417,0,0,1,1.417,0Z" transform="translate(17.141 1)" fill="none" stroke="#240066" stroke-miterlimit="10" stroke-width="2"/>
  <path id="Pfad_206" data-name="Pfad 206" d="M336.184-294.224v14.288A4.045,4.045,0,0,1,332.038-276H292.9a4.045,4.045,0,0,1-4.146-3.937v-14.288" transform="translate(-286.472 326.999)" fill="none" stroke="#240066" stroke-miterlimit="10" stroke-width="2"/>
  <rect id="Rechteck_44" data-name="Rechteck 44" width="4.758" height="8.467" rx="1.903" transform="translate(23.622 33.788)" fill="#fff" stroke="#240066" stroke-miterlimit="10" stroke-width="2"/>
</svg>
