<svg xmlns="http://www.w3.org/2000/svg" width="963.025" height="961.141" viewBox="0 0 963.025 961.141">
  <path id="Pfad_35" data-name="Pfad 35" d="M-1163.663,3600.411c-126.414-21.343-227.873-116.127-258.972-238.946" transform="translate(1748.906 -2643.083)" fill="none" stroke="#89ff98" stroke-miterlimit="10" stroke-width="4"/>
  <path id="Pfad_36" data-name="Pfad 36" d="M-793,3346.7c-27.267,133.959-137.445,237.777-274.617,255.54" transform="translate(1748.906 -2643.083)" fill="none" stroke="#89ff98" stroke-miterlimit="10" stroke-width="4"/>
  <path id="Pfad_37" data-name="Pfad 37" d="M-923.265,3018a322.743,322.743,0,0,1,135.392,233.961" transform="translate(1748.906 -2643.083)" fill="none" stroke="#89ff98" stroke-miterlimit="10" stroke-width="4"/>
  <path id="Pfad_38" data-name="Pfad 38" d="M-1217.774,2977.527a322.454,322.454,0,0,1,108.274-18.6,323.564,323.564,0,0,1,80.882,10.21" transform="translate(1748.906 -2643.083)" fill="none" stroke="#89ff98" stroke-miterlimit="10" stroke-width="4"/>
  <g id="Gruppe_135" data-name="Gruppe 135" transform="translate(-173.976 2777.676)">
    <path id="Line_26" data-name="Line 26" d="M598.459-2360.515l8.931-22.151-23.361,4.969" fill="none" stroke="#89ff98" stroke-miterlimit="10" stroke-width="4"/>
    <path id="Path_39" data-name="Path 39" d="M175.976-2777.676v299.044c0,112.22,90.972,203.192,203.192,203.192h26.307a220.211,220.211,0,0,0,160.859-69.914,322.877,322.877,0,0,1,38.159-34.778" fill="none" stroke="#89ff98" stroke-miterlimit="10" stroke-width="4"/>
  </g>
</svg>
