<svg xmlns="http://www.w3.org/2000/svg" width="82.818" height="102.429" viewBox="0 0 82.818 102.429">
  <g id="PEOPLE" transform="translate(1.215 1.215)">
    <g id="Gruppe_5" data-name="Gruppe 5" transform="translate(0 39.47)">
      <path id="Pfad_21" data-name="Pfad 21" d="M1008.854,2657.069c0,5.838-4.733,14.07-10.57,14.07s-10.572-8.232-10.572-14.07,4.733-8.82,10.572-8.82S1008.854,2651.23,1008.854,2657.069Z" transform="translate(-980.432 -2648.249)" fill="#6fff81" stroke="#240066" stroke-linecap="round" stroke-miterlimit="10" stroke-width="2.43"/>
      <path id="Pfad_22" data-name="Pfad 22" d="M983.344,2686.851c0-12.013,7.992-21.751,17.852-21.751s17.852,9.738,17.852,21.751c0,10.735-7.993,10.693-17.852,10.693S983.344,2697.586,983.344,2686.851Z" transform="translate(-983.344 -2637.015)" fill="#6fff81" stroke="#240066" stroke-linecap="round" stroke-miterlimit="10" stroke-width="2.43"/>
      <path id="Pfad_23" data-name="Pfad 23" d="M1035.665,2657.069c0,5.838-4.733,14.07-10.57,14.07s-10.572-8.232-10.572-14.07,4.733-8.82,10.572-8.82S1035.665,2651.23,1035.665,2657.069Z" transform="translate(-962.558 -2648.249)" fill="#6fff81" stroke="#240066" stroke-linecap="round" stroke-miterlimit="10" stroke-width="2.43"/>
      <path id="Pfad_24" data-name="Pfad 24" d="M1010.155,2686.851c0-12.013,7.992-21.751,17.852-21.751s17.852,9.738,17.852,21.751c0,10.735-7.993,10.693-17.852,10.693S1010.155,2697.544,1010.155,2686.851Z" transform="translate(-965.47 -2637.015)" fill="#6fff81" stroke="#240066" stroke-linecap="round" stroke-miterlimit="10" stroke-width="2.43"/>
    </g>
    <path id="Pfad_25" data-name="Pfad 25" d="M1022.334,2633.387c0,5.838-4.732,14.07-10.57,14.07s-10.57-8.232-10.57-14.07,4.732-8.82,10.57-8.82S1022.334,2627.548,1022.334,2633.387Z" transform="translate(-971.444 -2624.566)" fill="none" stroke="#240066" stroke-linecap="round" stroke-miterlimit="10" stroke-width="2.43"/>
    <path id="Pfad_26" data-name="Pfad 26" d="M999.822,2648.08a15.734,15.734,0,0,1,25.713,0" transform="translate(-972.359 -2613.333)" fill="none" stroke="#240066" stroke-linecap="round" stroke-miterlimit="10" stroke-width="2.43"/>
  </g>
</svg>
