<svg xmlns="http://www.w3.org/2000/svg" xmlns:xlink="http://www.w3.org/1999/xlink" width="674.527" height="757.006" viewBox="0 0 674.527 757.006">
  <defs>
    <linearGradient id="linear-gradient" x1="0.006" y1="0.506" x2="0.986" y2="0.506" gradientUnits="objectBoundingBox">
      <stop offset="0" stop-color="#fff"/>
      <stop offset="1" stop-color="#fff"/>
    </linearGradient>
    <linearGradient id="linear-gradient-2" x1="235.369" y1="-3.498" x2="234.796" y2="1.805" gradientUnits="objectBoundingBox">
      <stop offset="0" stop-color="#4042e2"/>
      <stop offset="1" stop-color="#4f52ff"/>
    </linearGradient>
    <linearGradient id="linear-gradient-3" x1="123.32" y1="-1.235" x2="123.177" y2="1.146" xlink:href="#linear-gradient-2"/>
  </defs>
  <g id="Gruppe_194" data-name="Gruppe 194" transform="translate(-148.271 -247.479)">
    <g id="Gruppe_137" data-name="Gruppe 137" transform="translate(148.271 247.479)">
      <path id="Pfad_212" data-name="Pfad 212" d="M483.5,887.756c-45.207,0-88.344-.023-127.965-14.329-42-15.163-82.016-35.132-114.133-63.085-33.287-28.97-40.665-74.587-59.286-113.6-18.466-38.689-31.805-72.98-31.805-117.862s-8.675-89.68,9.791-128.37C178.717,411.5,212.12,381,245.4,352.026c32.117-27.953,63.928-64.163,105.924-79.326,39.622-14.307,86.959-25.221,132.169-25.221s91.421,14.026,131.043,28.333c42,15.163,77.72,45.058,109.838,73.01,33.285,28.97,41.291,73.47,59.912,112.481,18.466,38.689,32.9,72.7,32.9,117.578s-10.015,81-28.482,119.688c-18.619,39.012-37.719,73.731-71,102.7-32.117,27.953-55.016,82.545-97.012,97.708C581.068,913.286,528.706,887.756,483.5,887.756Z" transform="translate(-148.271 -247.479)" fill="url(#linear-gradient)"/>
    </g>
    <path id="Pfad_213" data-name="Pfad 213" d="M370.535,375.571c22.208,7.841,40.818,7.994,53.111-8.467" transform="translate(176.38 94.929)" fill="none" stroke="#3c3bfc" stroke-linecap="round" stroke-miterlimit="10" stroke-width="1.175" stroke-dasharray="2.835 2.835"/>
    <path id="Pfad_214" data-name="Pfad 214" d="M257.671,435.49c-35.4-10.77-36.372-100.667,54.035-101.9,20.183-.274,41.829,6.894,63.521,16.859" transform="translate(69.095 68.328)" fill="none" stroke="#3c3bfc" stroke-linecap="round" stroke-miterlimit="10" stroke-width="1.175" stroke-dasharray="2.835 2.835"/>
    <path id="Pfad_215" data-name="Pfad 215" d="M218.752,319.1s96.38-39.79,127.572,38.145c7.047,17.611,9.669,32.478,7.445,45.467" transform="translate(55.931 48.779)" fill="none" stroke="#3c3bfc" stroke-linecap="round" stroke-miterlimit="10" stroke-width="1.175" stroke-dasharray="2.835 2.835"/>
    <g id="Gruppe_144" data-name="Gruppe 144" transform="translate(445.339 611.726)">
      <path id="Pfad_216" data-name="Pfad 216" d="M437.829,498.564l6.79,16.765-11.2,28.39-11.884-38.874Z" transform="translate(-228.49 -412.476)" fill="#f7b58e"/>
      <path id="Pfad_217" data-name="Pfad 217" d="M342.072,475.684l-9.845,22.023-9.506,57.039h9.506c24.444-26.823,24.444-76.05,24.444-76.05Z" transform="translate(-306.902 -430.632)" fill="#59d365"/>
      <path id="Pfad_218" data-name="Pfad 218" d="M429.876,574.791H324.917a11.013,11.013,0,0,1-10.925-12.412l11.314-88.424h14.939s3.056,24.956,3.4,38.96c1.358,15.362-7.47,38.449-7.47,38.449s51.267-31.235,73.335-29.2c17.315,2.208,21.514-1.019,21.514-1.019Z" transform="translate(-313.901 -432.004)" fill="#6fff81"/>
      <path id="Pfad_219" data-name="Pfad 219" d="M446.464,487.085s14.94-2.038,25.465,21.729a40.412,40.412,0,0,1-10.695,8.826s1.09,17.207-4.923,21.051-43.117,26.821-43.117,26.821h-34.63V519.339l48.55-33.692Z" transform="translate(-262.589 -422.726)" fill="#3c3bfc"/>
      <path id="Pfad_220" data-name="Pfad 220" d="M409.6,478.752c-2.226,0,.83,14.314.83,14.314s.169,21.22,7.639,21.22c8.487,0,8.487-21.842,8.487-21.842v-5.829S411.826,478.752,409.6,478.752Z" transform="translate(-238.605 -428.197)" fill="#f39f85"/>
      <path id="Pfad_221" data-name="Pfad 221" d="M424.73,501.262c2.072.307,4.041.312,5.2-.4,7.639-8.4,7.639-35.139,7.639-35.139H413.124L409.37,482.7a14.593,14.593,0,0,0,3.271,12.765h0A23.41,23.41,0,0,0,424.73,501.262Z" transform="translate(-238.414 -438.538)" fill="#f7b58e"/>
      <path id="Pfad_222" data-name="Pfad 222" d="M385.774,503.953c19.543-10.559,31.986-5.225,38.45-8.148,10.693-4.837,16.551-37.941,35.521-36.158s18.969,14.513,18.969,14.513,4.218,10.878-21.96,8.383c-4.2-.4-9.493,1.8-9.594,6.016-.249,10.564.151,19.724.151,19.724s-19.523,6.111-26.907,12.985-20.881,42.016-42.523,42.014C357.509,561.5,354.2,521.013,385.774,503.953Z" transform="translate(-275.487 -443.414)" fill="#240066"/>
      <path id="Pfad_223" data-name="Pfad 223" d="M395.214,506.325l19.691,11.543-8.776,16.3c-2.145,2.828-.181,4.861,3.37,4.943l48.864,1.162V549.1H382.4C373.485,549.1,395.214,506.325,395.214,506.325Z" transform="translate(-261.246 -406.317)" fill="#f7b58e"/>
      <path id="Pfad_224" data-name="Pfad 224" d="M507.645,504.432H439.4l-22.419,46.173h68.254Z" transform="translate(-232.1 -407.819)" fill="#240066"/>
      <rect id="Rechteck_51" data-name="Rechteck 51" width="87.594" height="4.074" transform="translate(165.543 138.712)" fill="#240066"/>
      <path id="Pfad_225" data-name="Pfad 225" d="M443.893,515.025a2.737,2.737,0,1,0,2.737-2.737A2.737,2.737,0,0,0,443.893,515.025Z" transform="translate(-210.745 -401.585)" fill="#ededed"/>
      <path id="Pfad_226" data-name="Pfad 226" d="M321.3,480.208l2.547-13.495,2.036-.42a10.46,10.46,0,0,1,3.958-.056l2.664.475v13.495Z" transform="translate(-308.029 -438.257)" fill="#f7b58e"/>
      <g id="Gruppe_140" data-name="Gruppe 140" transform="translate(1.925)">
        <path id="Pfad_227" data-name="Pfad 227" d="M328.868,478.555l-11.554-15.3c-1.851-2.452-3.438-5.673-1.351-8.566a26.97,26.97,0,0,1,3.062-3.53c1.471-.325,21.937,22.177,21.937,22.177l-.009.2c-.138,2.812-1.9,5.341-5.784,5.341Z" transform="translate(-314.975 -450.099)" fill="#6fff81"/>
        <path id="Pfad_228" data-name="Pfad 228" d="M317.233,451.623,339.171,473.8l.955-1.337-21.9-21.9Z" transform="translate(-313.183 -450.565)" fill="#fff"/>
        <g id="Gruppe_138" data-name="Gruppe 138" transform="translate(10.081 21.068)">
          <rect id="Rechteck_52" data-name="Rechteck 52" width="3.952" height="2.037" transform="matrix(0.815, -0.579, 0.579, 0.815, 0, 2.288)" fill="#fff"/>
        </g>
        <g id="Gruppe_139" data-name="Gruppe 139" transform="translate(7.039 16.928)">
          <rect id="Rechteck_53" data-name="Rechteck 53" width="4.16" height="2.037" transform="translate(0 2.392) rotate(-35.101)" fill="#fff"/>
        </g>
      </g>
      <g id="Gruppe_143" data-name="Gruppe 143" transform="translate(37.212 4.832)">
        <path id="Pfad_229" data-name="Pfad 229" d="M341.544,482.748l-6.13-18.169c-.983-2.909-1.473-6.468,1.422-8.554a27.035,27.035,0,0,1,4.018-2.382c1.5.154,13.814,27.969,13.814,27.969l-.07.185c-1.019,2.626-3.49,4.468-7.174,3.241Z" transform="translate(-334.649 -452.954)" fill="#6fff81"/>
        <path id="Pfad_230" data-name="Pfad 230" d="M338.108,453.949l13.814,27.97,1.328-.967-13.864-27.693Z" transform="translate(-331.903 -453.259)" fill="#fff"/>
        <g id="Gruppe_141" data-name="Gruppe 141" transform="translate(4.888 22.598)">
          <rect id="Rechteck_54" data-name="Rechteck 54" width="3.952" height="2.037" transform="translate(0 1.154) rotate(-16.982)" fill="#fff"/>
        </g>
        <g id="Gruppe_142" data-name="Gruppe 142" transform="translate(3.276 17.766)">
          <rect id="Rechteck_55" data-name="Rechteck 55" width="4.16" height="2.038" transform="translate(0 1.196) rotate(-16.701)" fill="#fff"/>
        </g>
      </g>
      <path id="Pfad_231" data-name="Pfad 231" d="M335.06,480.933l6.134-11.143,8.264,2.823-3.831,10.5Z" transform="translate(-297.111 -435.309)" fill="#f7b58e"/>
    </g>
    <g id="Gruppe_145" data-name="Gruppe 145" transform="translate(454.259 394.996)">
      <path id="Pfad_232" data-name="Pfad 232" d="M409.559,374.718A44.788,44.788,0,0,1,364.77,419.5c-24.735,0-45.9-20.927-45.9-45.664s21.16-43.912,45.9-43.912A44.788,44.788,0,0,1,409.559,374.718Z" transform="translate(-318.875 -329.567)" fill="#240066"/>
      <path id="Pfad_233" data-name="Pfad 233" d="M400.769,372.055A38.767,38.767,0,0,1,362,410.822c-21.412,0-39.729-18.115-39.729-39.526S340.59,333.285,362,333.285A38.769,38.769,0,0,1,400.769,372.055Z" transform="translate(-316.179 -326.904)" fill="#3c00ce"/>
      <path id="Pfad_234" data-name="Pfad 234" d="M396.306,372.055a38.769,38.769,0,0,0-38.768-38.77A40.657,40.657,0,0,0,327.9,346.017l29.865,24.848L363.9,410.3A38.778,38.778,0,0,0,396.306,372.055Z" transform="translate(-311.716 -326.904)" fill="#3c00ce"/>
      <path id="Pfad_235" data-name="Pfad 235" d="M395.091,368.879c0,19.324-15.99,34.989-35.715,34.989s-36.6-16.35-36.6-35.674,16.874-34.3,36.6-34.3S395.091,349.555,395.091,368.879Z" transform="translate(-315.778 -326.424)" fill="#3c3bfc"/>
      <path id="Pfad_236" data-name="Pfad 236" d="M330.435,355.177a2.984,2.984,0,1,1-2.805-3.153A2.983,2.983,0,0,1,330.435,355.177Z" transform="translate(-314.434 -312.037)" fill="#fff"/>
      <path id="Pfad_237" data-name="Pfad 237" d="M366.389,357.269a2.985,2.985,0,1,1-2.807-3.153A2.986,2.986,0,0,1,366.389,357.269Z" transform="translate(-285.903 -310.377)" fill="#fff"/>
      <path id="Pfad_238" data-name="Pfad 238" d="M342.733,370.828a2.985,2.985,0,1,1-3.472,2.4A2.985,2.985,0,0,1,342.733,370.828Z" transform="translate(-302.737 -297.151)" fill="#fff"/>
      <path id="Pfad_239" data-name="Pfad 239" d="M349.2,335.4a2.985,2.985,0,1,1-3.472,2.4A2.985,2.985,0,0,1,349.2,335.4Z" transform="translate(-297.602 -325.265)" fill="#fff"/>
      <path id="Pfad_240" data-name="Pfad 240" d="M353.726,372.282c.3.766.226,1.483-.17,1.6s-.965-.405-1.268-1.171-.228-1.482.17-1.6S353.421,371.518,353.726,372.282Z" transform="translate(-292.508 -296.899)" fill="#fff"/>
      <path id="Pfad_241" data-name="Pfad 241" d="M339.26,338.68c.3.766.228,1.482-.169,1.6s-.965-.405-1.268-1.171-.228-1.482.17-1.6S338.957,337.914,339.26,338.68Z" transform="translate(-303.986 -323.566)" fill="#fff"/>
      <path id="Pfad_242" data-name="Pfad 242" d="M361.353,365.59c.656.5.963,1.15.685,1.456s-1.035.154-1.691-.343-.963-1.148-.685-1.455S360.7,365.1,361.353,365.59Z" transform="translate(-286.59 -301.665)" fill="#fff"/>
      <path id="Pfad_243" data-name="Pfad 243" d="M331.542,344.383c.656.495.965,1.148.687,1.455s-1.035.154-1.691-.343-.963-1.148-.687-1.455S330.886,343.886,331.542,344.383Z" transform="translate(-310.245 -318.495)" fill="#fff"/>
      <path id="Pfad_244" data-name="Pfad 244" d="M362,346.453c.744-.355,1.464-.326,1.609.061s-.341.99-1.083,1.343-1.464.326-1.609-.061S361.255,346.806,362,346.453Z" transform="translate(-285.535 -316.652)" fill="#fff"/>
      <path id="Pfad_245" data-name="Pfad 245" d="M329.439,363.135c.743-.355,1.464-.326,1.607.061s-.339.99-1.082,1.343-1.464.326-1.609-.061S328.694,363.488,329.439,363.135Z" transform="translate(-311.372 -303.414)" fill="#fff"/>
      <path id="Pfad_246" data-name="Pfad 246" d="M354.813,339.618c.452-.689,1.081-1.038,1.406-.782s.222,1.022-.228,1.711-1.082,1.039-1.406.782S354.361,340.307,354.813,339.618Z" transform="translate(-290.688 -322.566)" fill="#fff"/>
      <path id="Pfad_247" data-name="Pfad 247" d="M335.648,370.781c.452-.689,1.082-1.038,1.406-.782s.224,1.022-.228,1.711-1.081,1.038-1.406.782S335.2,371.47,335.648,370.781Z" transform="translate(-305.897 -297.836)" fill="#fff"/>
      <path id="Pfad_248" data-name="Pfad 248" d="M355.016,372.58l-12.684-23.6a.686.686,0,0,1,.6-1.01h3.089a.687.687,0,0,0,.5-1.157L330.74,329.947a.687.687,0,0,0-1.168.633l5.445,22.174a.687.687,0,0,0,1.169.3l2.5-2.692a.687.687,0,0,1,1.087.106l14.054,22.794a.686.686,0,0,0,.931.231h0A.686.686,0,0,0,355.016,372.58Z" transform="translate(-310.403 -329.727)" fill="#6fff81"/>
      <path id="Pfad_249" data-name="Pfad 249" d="M344.755,358.982l23.433-.762a.686.686,0,0,1,.619,1l-1.42,2.741a.688.688,0,0,0,.8.977l22.235-6.259a.686.686,0,0,0-.025-1.327L368.2,349.989a.686.686,0,0,0-.807.9l1.241,3.456a.686.686,0,0,1-.594.917l-23.345,2.35a.689.689,0,0,0-.635.721h0A.688.688,0,0,0,344.755,358.982Z" transform="translate(-298.89 -313.665)" fill="#6fff81"/>
      <path id="Pfad_250" data-name="Pfad 250" d="M348.908,355.685a3.187,3.187,0,1,1-3.187-3.187A3.186,3.186,0,0,1,348.908,355.685Z" transform="translate(-300.1 -311.657)" fill="#6fff81"/>
    </g>
    <g id="Gruppe_151" data-name="Gruppe 151" transform="translate(152.211 356.206)">
      <path id="Pfad_251" data-name="Pfad 251" d="M207.023,322.539l-.2,9.273a10.977,10.977,0,0,0-.473,7.825l1.428,10.153,1.745,1.173,6.491,2.681a7,7,0,0,1,0-4.066l2.852-10.5s4.434-17.724-7.6-16.965Z" transform="translate(-106.527 -297)" fill="#f7b58e"/>
      <path id="Pfad_252" data-name="Pfad 252" d="M190.97,355.124s8.412,32.107,15.586,32.68,14.635-50.862,14.635-50.862l9.757,1.178s3.79,73.965-18.1,75.312-24.773-15.01-24.773-15.01Z" transform="translate(-120.619 -285.211)" fill="#59d365"/>
      <path id="Pfad_253" data-name="Pfad 253" d="M214.513,442.9H157.261V355.949C173.618,330.99,194,337.789,194,337.789s18.535.332,21.424,17.335C215.428,367.428,214.513,442.9,214.513,442.9Z" transform="translate(-145.076 -285.21)" fill="#6fff81"/>
      <g id="Gruppe_146" data-name="Gruppe 146" transform="translate(41.389 41.028)">
        <path id="Pfad_254" data-name="Pfad 254" d="M174.391,330.975l-.847,12.293.4.384a10.664,10.664,0,0,0,14.483.2h0l.192-9.248Z" transform="translate(-173.544 -330.975)" fill="#f39f85"/>
      </g>
      <g id="Gruppe_147" data-name="Gruppe 147" transform="translate(24.668)">
        <path id="Pfad_255" data-name="Pfad 255" d="M171.509,316.656l1.037,20.319c2.021-.083,3.207,2.089,2.821,3.989a3.831,3.831,0,0,1,.339,1.5,23.31,23.31,0,0,0,18.106,4.217c12.86-2.461,5.1-27.319,5.1-27.319Z" transform="translate(-158.437 -301.31)" fill="#f7b58e"/>
        <path id="Pfad_256" data-name="Pfad 256" d="M170.829,338.707c-.1-1.49-2.129-4.651-3.257-5.628-7.282-6.3-.768-10.891,1.541-12.375,2.556-1.641,2.054-6.276,5.363-8.866,5.051-3.953,9.92.145,13.154-.456s5.244-4.9,9.947-2.622,4.186,5.973,5.693,7.531,4.278-2.748,8.866,2.17c6.979,7.484-6.708,10.684-6.708,10.684s-7.49,3.1-17.406-.789a3.255,3.255,0,0,0-3.838.94c-2.366,3.237-2.394,20.188-2.394,20.188l-3.307-2.75S171.268,345.534,170.829,338.707Z" transform="translate(-164.221 -308.1)" fill="#240066"/>
        <path id="Pfad_257" data-name="Pfad 257" d="M172.309,328a3.12,3.12,0,1,0,1.706-4.07A3.121,3.121,0,0,0,172.309,328Z" transform="translate(-157.988 -295.725)" fill="#f7b58e"/>
      </g>
      <g id="Gruppe_148" data-name="Gruppe 148" transform="translate(42.651 311.906)">
        <path id="Pfad_258" data-name="Pfad 258" d="M188.057,487.434s3.228,4.464,18.438,8.338c3.349.854,6.959,1.435,6.959,6.961H198.44l-15.351-2.654v2.654H174.8s-2.308-13.561,2.533-15.3Z" transform="translate(-174.247 -477.693)" fill="#240066"/>
        <path id="Pfad_259" data-name="Pfad 259" d="M187.482,482l-.789,9.741h0a9.381,9.381,0,0,1-10.157.341l-.57-.341V482Z" transform="translate(-172.883 -482.003)" fill="#f7b58e"/>
      </g>
      <g id="Gruppe_149" data-name="Gruppe 149" transform="translate(0 311.906)">
        <path id="Pfad_260" data-name="Pfad 260" d="M164.277,487.434s3.228,4.464,18.438,8.338c3.349.854,6.959,1.435,6.959,6.961H174.66l-15.351-2.654v2.654h-8.292s-2.308-13.561,2.534-15.3Z" transform="translate(-150.467 -477.693)" fill="#240066"/>
        <path id="Pfad_261" data-name="Pfad 261" d="M163.7,482l-.789,9.741h0a9.381,9.381,0,0,1-10.157.341l-.569-.341V482Z" transform="translate(-149.103 -482.003)" fill="#f7b58e"/>
      </g>
      <path id="Pfad_262" data-name="Pfad 262" d="M160.112,347.54s-17.161,39.6,4.735,59.835,51.619,16.788,51.619,16.788V412.756s-26.866-2.271-35.475-20.231,3.442-33.505,3.442-33.505" transform="translate(-147.89 -276.801)" fill="#6fff81"/>
      <path id="Pfad_263" data-name="Pfad 263" d="M187.724,396.441l13.706.285c5.564-.307,9.267-8.616,10.191-14.793a1.255,1.255,0,0,0-1.659-1.358c-4.651,1.614-16.614,5.851-19.708,7.772Z" transform="translate(-120.902 -250.642)" fill="#f7b58e"/>
      <path id="Pfad_264" data-name="Pfad 264" d="M205.752,396.021c17.075,48.213-9.613,154.967-9.613,154.967H180.929S188.1,399.608,168.3,396.021Z" transform="translate(-136.315 -238.329)" fill="#240066"/>
      <path id="Pfad_265" data-name="Pfad 265" d="M177.91,365.941a30.834,30.834,0,0,0,3.058,11.981c8.609,17.961,36.874,20.339,36.874,20.339v11.522S186.72,413,164.824,392.773c-7.938-7.336-10.729-17.215-11.079-26.832Z" transform="translate(-147.867 -262.199)" fill="#59d365"/>
      <g id="Gruppe_150" data-name="Gruppe 150" transform="translate(28.281 81.26)">
        <path id="Pfad_266" data-name="Pfad 266" d="M168.13,377.626c-.6-.271-1.205-.533-1.8-.818-1.031-13.271,6.731-23.277,6.83-23.4l1.351,1.069C174.413,354.6,166.683,364.578,168.13,377.626Z" transform="translate(-166.235 -353.406)" fill="#fff"/>
      </g>
      <path id="Pfad_267" data-name="Pfad 267" d="M202.438,396.021c4.649,59.117-33.1,154.967-33.1,154.967H151.261S163.547,489.7,163.8,432.177a307.392,307.392,0,0,0-1.776-36.156Z" transform="translate(-149.838 -238.329)" fill="#3c3bfc"/>
    </g>
    <g id="_5" data-name="5" transform="translate(337.284 436.362)">
      <g id="Gears">
        <g id="Gruppe_152" data-name="Gruppe 152" transform="translate(34.093 21.428)">
          <path id="Pfad_268" data-name="Pfad 268" d="M272.734,388.321a25.334,25.334,0,0,0,.188,5.5.979.979,0,0,0,1.207.8c3.845-.787,7.289.188,8.417,2.662s-.4,5.716-3.51,8.1a.975.975,0,0,0-.19,1.433,25.216,25.216,0,0,0,4.023,3.749.977.977,0,0,0,1.415-.291c2.163-3.273,5.289-5.02,7.836-4.068s3.763,4.322,3.248,8.209a.977.977,0,0,0,.879,1.15,25.336,25.336,0,0,0,5.5-.19.974.974,0,0,0,.795-1.207c-.786-3.844.188-7.291,2.665-8.419s5.716.4,8.1,3.512a.978.978,0,0,0,1.435.19,24.978,24.978,0,0,0,3.749-4.023.981.981,0,0,0-.291-1.419c-3.271-2.159-5.018-5.284-4.066-7.834s4.321-3.761,8.209-3.245a.979.979,0,0,0,1.148-.879,25.127,25.127,0,0,0-.19-5.5.977.977,0,0,0-1.207-.8c-3.844.787-7.289-.188-8.417-2.663s.4-5.714,3.51-8.1a.975.975,0,0,0,.192-1.431,25.208,25.208,0,0,0-4.025-3.749.977.977,0,0,0-1.417.289c-2.159,3.273-5.287,5.018-7.834,4.066s-3.761-4.319-3.248-8.207a.974.974,0,0,0-.877-1.148,25.324,25.324,0,0,0-5.5.19.978.978,0,0,0-.8,1.209c.787,3.842-.188,7.285-2.664,8.415s-5.718-.395-8.1-3.51a.976.976,0,0,0-1.435-.192,25.453,25.453,0,0,0-3.749,4.023.981.981,0,0,0,.292,1.419c3.273,2.161,5.018,5.286,4.066,7.832s-4.319,3.763-8.209,3.248A.972.972,0,0,0,272.734,388.321Zm27.73-11.251a13.425,13.425,0,1,1-15.676,10.709A13.423,13.423,0,0,1,300.464,377.07Z" transform="translate(-272.664 -364.738)" fill="#3c3bfc"/>
        </g>
        <g id="Gruppe_153" data-name="Gruppe 153" transform="translate(2.394 47.994)">
          <path id="Pfad_269" data-name="Pfad 269" d="M257.483,410.015a20.5,20.5,0,0,0,2.547,3.652.79.79,0,0,0,1.171.011c2.267-2.228,5.038-3.08,6.894-1.894s2.247,4.059,1.18,7.052a.789.789,0,0,0,.5,1.056,20.284,20.284,0,0,0,4.383.777.791.791,0,0,0,.836-.82c.029-3.176,1.385-5.739,3.535-6.215s4.461,1.282,5.822,4.15a.791.791,0,0,0,1.1.395,20.5,20.5,0,0,0,3.652-2.547.791.791,0,0,0,.009-1.171c-2.226-2.267-3.081-5.04-1.894-6.9s4.059-2.247,7.05-1.178a.793.793,0,0,0,1.06-.5,20.39,20.39,0,0,0,.777-4.383.794.794,0,0,0-.823-.838c-3.173-.027-5.738-1.383-6.213-3.535s1.282-4.459,4.152-5.82a.793.793,0,0,0,.395-1.1,20.423,20.423,0,0,0-2.55-3.652.791.791,0,0,0-1.171-.011c-2.265,2.228-5.036,3.081-6.893,1.9s-2.247-4.059-1.18-7.052a.791.791,0,0,0-.5-1.058,20.439,20.439,0,0,0-4.387-.777.79.79,0,0,0-.834.82c-.027,3.176-1.385,5.739-3.537,6.215s-4.457-1.281-5.82-4.15a.79.79,0,0,0-1.1-.395A20.472,20.472,0,0,0,262,384.59a.792.792,0,0,0-.011,1.173c2.228,2.265,3.079,5.035,1.894,6.891s-4.061,2.249-7.051,1.182a.79.79,0,0,0-1.06.5,20.367,20.367,0,0,0-.777,4.383.794.794,0,0,0,.821.836c3.176.027,5.738,1.383,6.213,3.535s-1.281,4.459-4.15,5.82A.789.789,0,0,0,257.483,410.015Zm13.9-19.857a10.873,10.873,0,1,1-5.94,14.182A10.871,10.871,0,0,1,271.38,390.159Z" transform="translate(-254.99 -379.55)" fill="#3c3bfc"/>
        </g>
        <g id="Gruppe_154" data-name="Gruppe 154">
          <path id="Pfad_270" data-name="Pfad 270" d="M253.8,372.834a22.316,22.316,0,0,0-.016,4.87.864.864,0,0,0,1.04.746c3.431-.567,6.446.413,7.363,2.64s-.542,5.045-3.379,7.052a.864.864,0,0,0-.215,1.263,22.251,22.251,0,0,0,3.435,3.453.866.866,0,0,0,1.263-.21c2.025-2.825,4.85-4.265,7.074-3.338s3.185,3.951,2.6,7.375a.867.867,0,0,0,.739,1.047,22.558,22.558,0,0,0,4.871.016.865.865,0,0,0,.744-1.042c-.567-3.429.411-6.448,2.64-7.363s5.047.542,7.052,3.379a.865.865,0,0,0,1.263.217,22.267,22.267,0,0,0,3.453-3.436.866.866,0,0,0-.21-1.264c-2.823-2.021-4.265-4.846-3.336-7.072s3.951-3.184,7.373-2.6a.868.868,0,0,0,1.047-.739,22.229,22.229,0,0,0,.014-4.871.863.863,0,0,0-1.04-.746c-3.429.569-6.446-.412-7.363-2.64s.542-5.045,3.379-7.052a.866.866,0,0,0,.217-1.263,22.348,22.348,0,0,0-3.436-3.453.864.864,0,0,0-1.263.21c-2.023,2.825-4.85,4.263-7.072,3.336s-3.185-3.949-2.6-7.373a.863.863,0,0,0-.737-1.046,22.454,22.454,0,0,0-4.871-.018.869.869,0,0,0-.746,1.044c.569,3.428-.411,6.444-2.638,7.361s-5.049-.542-7.054-3.377a.863.863,0,0,0-1.263-.219,22.348,22.348,0,0,0-3.453,3.436.866.866,0,0,0,.21,1.264c2.825,2.021,4.265,4.846,3.336,7.07s-3.949,3.185-7.375,2.6A.861.861,0,0,0,253.8,372.834ZM278.72,363.8a11.892,11.892,0,1,1-14.236,8.955A11.891,11.891,0,0,1,278.72,363.8Z" transform="translate(-253.655 -352.791)" fill="#3c3bfc"/>
        </g>
      </g>
    </g>
    <g id="Gruppe_170" data-name="Gruppe 170" transform="translate(605.978 370.392)">
      <rect id="Rechteck_56" data-name="Rechteck 56" width="104.164" height="142.266" rx="3.527" transform="translate(0 17.968)" fill="#240066"/>
      <rect id="Rechteck_57" data-name="Rechteck 57" width="90.52" height="123.633" rx="0.928" transform="translate(6.822 29.191)" fill="#fff"/>
      <g id="Gruppe_155" data-name="Gruppe 155" transform="translate(12.242 50.001)">
        <path id="Pfad_271" data-name="Pfad 271" d="M431.534,365.13H410.291V343.887h21.243Zm-20.481-.762h19.72V344.649h-19.72Z" transform="translate(-410.291 -343.887)" fill="#ddd"/>
      </g>
      <g id="Gruppe_156" data-name="Gruppe 156" transform="translate(12.242 82.079)">
        <path id="Pfad_272" data-name="Pfad 272" d="M431.534,383.015H410.291V361.772h21.243Zm-20.481-.762h19.72V362.534h-19.72Z" transform="translate(-410.291 -361.772)" fill="#ddd"/>
      </g>
      <g id="Gruppe_157" data-name="Gruppe 157" transform="translate(12.242 114.156)">
        <path id="Pfad_273" data-name="Pfad 273" d="M431.534,400.9H410.291V379.657h21.243Zm-20.481-.762h19.72V380.419h-19.72Z" transform="translate(-410.291 -379.657)" fill="#ddd"/>
      </g>
      <g id="Gruppe_158" data-name="Gruppe 158" transform="translate(44.788 51.747)">
        <rect id="Rechteck_58" data-name="Rechteck 58" width="43.757" height="2.179" fill="#ddd"/>
        <rect id="Rechteck_59" data-name="Rechteck 59" width="43.757" height="2.179" transform="translate(0 6.696)" fill="#ddd"/>
        <rect id="Rechteck_60" data-name="Rechteck 60" width="43.757" height="2.179" transform="translate(0 13.393)" fill="#ddd"/>
      </g>
      <g id="Gruppe_159" data-name="Gruppe 159" transform="translate(44.788 84.534)">
        <rect id="Rechteck_61" data-name="Rechteck 61" width="43.757" height="2.179" fill="#ddd"/>
        <rect id="Rechteck_62" data-name="Rechteck 62" width="43.757" height="2.179" transform="translate(0 6.696)" fill="#ddd"/>
        <rect id="Rechteck_63" data-name="Rechteck 63" width="43.757" height="2.179" transform="translate(0 13.393)" fill="#ddd"/>
      </g>
      <g id="Gruppe_160" data-name="Gruppe 160" transform="translate(44.788 115.338)">
        <rect id="Rechteck_64" data-name="Rechteck 64" width="43.757" height="2.179" fill="#ddd"/>
        <rect id="Rechteck_65" data-name="Rechteck 65" width="43.757" height="2.179" transform="translate(0 6.696)" fill="#ddd"/>
        <rect id="Rechteck_66" data-name="Rechteck 66" width="43.757" height="2.179" transform="translate(0 13.393)" fill="#ddd"/>
      </g>
      <g id="Gruppe_163" data-name="Gruppe 163" transform="translate(15.453 50.169)">
        <path id="Pfad_274" data-name="Pfad 274" d="M435.206,344.3l-15.153,11.142-4.076-4.138-3.9,2.606,7.8,6.149,17.93-15.05Z" transform="translate(-412.081 -343.724)" opacity="0.22"/>
        <g id="Gruppe_162" data-name="Gruppe 162" transform="translate(0.41)">
          <g id="Gruppe_161" data-name="Gruppe 161">
            <path id="Pfad_275" data-name="Pfad 275" d="M412.524,353.083l2.742-1.834,4.093,4.155,15.347-11.285,1.154.313-16.615,13.947Z" transform="translate(-412.141 -343.872)" fill="#8cad81"/>
            <path id="Pfad_276" data-name="Pfad 276" d="M419.42,358.778l-7.11-5.6,3.155-2.109,4.087,4.148,15.278-11.235,1.673.456Z" transform="translate(-412.31 -343.981)" fill="#6fff81"/>
          </g>
        </g>
      </g>
      <g id="Gruppe_166" data-name="Gruppe 166" transform="translate(16.162 82)">
        <path id="Pfad_277" data-name="Pfad 277" d="M435.6,362.051l-15.153,11.143-4.076-4.138-3.9,2.606,7.8,6.149,17.93-15.05Z" transform="translate(-412.477 -361.472)" opacity="0.22"/>
        <g id="Gruppe_165" data-name="Gruppe 165" transform="translate(0.412)">
          <g id="Gruppe_164" data-name="Gruppe 164">
            <path id="Pfad_278" data-name="Pfad 278" d="M412.919,370.829l2.742-1.834,4.093,4.155L435.1,361.864l1.154.313L419.64,376.125Z" transform="translate(-412.537 -361.62)" fill="#8cad81"/>
            <path id="Pfad_279" data-name="Pfad 279" d="M419.814,376.523l-7.108-5.6,3.153-2.109,4.088,4.148,15.277-11.233,1.673.454Z" transform="translate(-412.706 -361.728)" fill="#6fff81"/>
          </g>
        </g>
      </g>
      <g id="Gruppe_169" data-name="Gruppe 169" transform="translate(17.001 114.07)">
        <path id="Pfad_280" data-name="Pfad 280" d="M436.069,379.932l-15.153,11.142-4.076-4.138-3.9,2.606,7.8,6.149,17.93-15.05Z" transform="translate(-412.944 -379.353)" opacity="0.22"/>
        <g id="Gruppe_168" data-name="Gruppe 168" transform="translate(0.41)">
          <g id="Gruppe_167" data-name="Gruppe 167">
            <path id="Pfad_281" data-name="Pfad 281" d="M413.387,388.71l2.742-1.834,4.093,4.155,15.347-11.285,1.154.313-16.615,13.947Z" transform="translate(-413.004 -379.501)" fill="#8cad81"/>
            <path id="Pfad_282" data-name="Pfad 282" d="M420.283,394.4l-7.11-5.6,3.155-2.111,4.087,4.148,15.278-11.233,1.673.454Z" transform="translate(-413.173 -379.609)" fill="#6fff81"/>
          </g>
        </g>
      </g>
      <path id="Pfad_283" data-name="Pfad 283" d="M473.8,330.444h-15.48v-2.211A12.224,12.224,0,0,0,446.1,316.009h-.247a12.223,12.223,0,0,0-12.223,12.223v2.211H418.143a1.45,1.45,0,0,0-1.449,1.449v15.622a1.45,1.45,0,0,0,1.449,1.449H473.8a1.45,1.45,0,0,0,1.451-1.449V331.893A1.45,1.45,0,0,0,473.8,330.444Zm-27.827-1.453a4.085,4.085,0,1,1,4.086-4.084A4.084,4.084,0,0,1,445.972,328.991Z" transform="translate(-392.968 -316.009)" fill="#3c3bfc"/>
    </g>
    <g id="Gruppe_175" data-name="Gruppe 175" transform="translate(682.902 432.14)">
      <path id="Pfad_284" data-name="Pfad 284" d="M505.775,492.125s.936,5.3,1.4,10.552a3.614,3.614,0,0,1-3.46,3.917c-6.99.292-21.941.857-27.305.619a1.177,1.177,0,0,1-1.037-1.612h0a2.64,2.64,0,0,1,1.347-1.419l24.7-11.351Z" transform="translate(-423.397 -237.999)" fill="#240066"/>
      <path id="Pfad_285" data-name="Pfad 285" d="M496.267,490.821l-.753,6.342s-4.326,2.014-7.28-.253l1.792-7.068Z" transform="translate(-413.121 -239.811)" fill="#f7b58e"/>
      <path id="Pfad_286" data-name="Pfad 286" d="M495.473,423.908c.325,1.656,1.743,82.653-6.914,118.949a1.231,1.231,0,0,0,.723,1.433,21.4,21.4,0,0,0,7.05,1.433,2.123,2.123,0,0,0,2.106-1.523c2.475-8.421,14.334-50.616,15.882-90.923,1.727-45.038,0-1.534,0-1.534L513.3,423.9Z" transform="translate(-412.891 -292.137)" fill="#240066"/>
      <path id="Pfad_287" data-name="Pfad 287" d="M512.509,493.667s1.492,2.678,2.934,9.791A2.206,2.206,0,0,1,513.5,506.1c-2.308.228-5.861.518-8.708.5a2.2,2.2,0,0,1-2.177-2.454,18.553,18.553,0,0,1,4.331-10.177Z" transform="translate(-401.72 -236.776)" fill="#240066"/>
      <path id="Pfad_288" data-name="Pfad 288" d="M511.925,489.284l-1.759,9.592s-1.738,1.293-5.178.355l.839-10.32Z" transform="translate(-399.826 -240.55)" fill="#f7b58e"/>
      <path id="Pfad_289" data-name="Pfad 289" d="M526.983,427.276c7.081,42.733-1.535,105.621-4.443,117.928a1.915,1.915,0,0,1-1.55,1.458,12.884,12.884,0,0,1-5.538-.221,1.759,1.759,0,0,1-1.265-1.62c-.389-9.951.312-71.041-6.286-95.184a5.486,5.486,0,0,0-2.115-3.026l-12.806-9.1L492,422.792Z" transform="translate(-410.134 -293.019)" fill="#3c3bfc"/>
      <g id="Gruppe_171" data-name="Gruppe 171" transform="translate(9.047 20.418)">
        <path id="Pfad_290" data-name="Pfad 290" d="M499.9,381.68c21.221-.352,44.634,5.571,44.634,5.571,6.326,36.91,1.107,79.48,1.107,79.48-16.429,4.308-34.96-2.633-34.96-2.633-2.732-15.428-15.471-58.843-15.471-58.843a69.9,69.9,0,0,1-25.942-8.234c5.365-6.218,7.893-14.131,8.993-18.809A71.215,71.215,0,0,0,499.9,381.68Z" transform="translate(-437.219 -348.815)" fill="#6fff81"/>
        <path id="Pfad_291" data-name="Pfad 291" d="M451.4,363.43a4.059,4.059,0,0,1,4.722-1.327c3.123,13.19,19.5,23.887,36.32,29.115-1.1,4.678-3.628,12.591-8.993,18.809C455.53,394.329,451.4,363.43,451.4,363.43Z" transform="translate(-451.399 -361.821)" fill="#f7b58e"/>
      </g>
      <g id="Gruppe_172" data-name="Gruppe 172" transform="translate(0)">
        <path id="Pfad_292" data-name="Pfad 292" d="M455.908,373.1c-.219.694,2.308,1.75,3.8-1.085.052-1.359.879-7.183.066-8.29-4.326-5.9-12.713-13.29-12.713-13.29a2,2,0,0,0-.249,2.773l4.068,4.238a19.693,19.693,0,0,0-2.375,4.7,5.691,5.691,0,0,0,.569,4.2c.714,1.288,1.688,2.959,2.61,4.269A5.627,5.627,0,0,0,455.908,373.1Z" transform="translate(-446.355 -350.437)" fill="#f7b58e"/>
        <path id="Pfad_293" data-name="Pfad 293" d="M450.229,355.879l3.709,3.142,1.164,3.13-3.306,3.668s-1.112-6.209-1.939-7.553S449.462,356.272,450.229,355.879Z" transform="translate(-443.93 -346.118)" fill="#f7b58e"/>
      </g>
      <path id="Pfad_294" data-name="Pfad 294" d="M506.7,403.8l8.139-20.549s19.821,13.468,23.081,30.544a46.867,46.867,0,0,0-17.231,4.617C519.218,410.35,506.7,403.8,506.7,403.8Z" transform="translate(-398.471 -324.397)" fill="#6fff81"/>
      <path id="Pfad_295" data-name="Pfad 295" d="M498.342,409.62s22.253,12.576,29.762,1.837a8.444,8.444,0,0,0,1.548-6.559,46.867,46.867,0,0,1,17.231-4.617,23.568,23.568,0,0,1-2.561,16.155c-13.154,24.061-48.927-1.329-48.927-1.329Z" transform="translate(-407.439 -310.883)" fill="#f7b58e"/>
      <g id="Gruppe_173" data-name="Gruppe 173" transform="translate(37.982 64.59)">
        <path id="Pfad_296" data-name="Pfad 296" d="M523.125,434.685,510.981,392.27a1.236,1.236,0,0,0-1.047-.891c-2.2-.256-8.577-.977-15.938-1.6-8.869-.75-19.168-1.358-25.321-.841a1.241,1.241,0,0,0-1.013,1.786c3.5,7.079,17.894,35.878,25.1,45.312a1.242,1.242,0,0,0,1,.493l28.18-.264A1.239,1.239,0,0,0,523.125,434.685Z" transform="translate(-467.532 -384.626)" fill="#240066"/>
        <path id="Pfad_297" data-name="Pfad 297" d="M485.806,387.925l-8.8-1.467a.632.632,0,0,0-.7.821l.872,2.64a.629.629,0,0,0,.517.429l8.473,1.132a.631.631,0,0,0,.7-.769l-.54-2.307A.628.628,0,0,0,485.806,387.925Z" transform="translate(-460.602 -386.449)" fill="url(#linear-gradient-2)"/>
        <path id="Pfad_298" data-name="Pfad 298" d="M494.216,394.212l-.725-3.779a.872.872,0,0,0-.769-.7l-17.785-1.806A.874.874,0,0,0,474,389l1.13,4.71a.873.873,0,0,0,.805.667l17.381.875A.872.872,0,0,0,494.216,394.212Z" transform="translate(-462.419 -385.282)" fill="url(#linear-gradient-3)"/>
        <path id="Pfad_299" data-name="Pfad 299" d="M503.533,415.043s1.693-6.955,1.01-9.423-2.005-5.643-6.412-4.938a64.407,64.407,0,0,0-9.606,2.563s.262,3.214,3.612,2.177l-2.077,1.607s.3,2.574,3.126,1.2l-1.932,2.133a2.251,2.251,0,0,0,3.3.759C496.631,409.763,497.63,415.883,503.533,415.043Z" transform="translate(-450.873 -375.233)" fill="#f7b58e"/>
      </g>
      <path id="Pfad_300" data-name="Pfad 300" d="M504.411,370.539l6.753,19.526a.706.706,0,0,1-.321.848c-1.84,1.017-8.471,3.958-16.463-1.108a3.308,3.308,0,0,1-1.525-2.366l-2.186-16.9Z" transform="translate(-411.189 -334.485)" fill="#f39f85"/>
      <g id="Gruppe_174" data-name="Gruppe 174" transform="translate(71.983 7.824)">
        <path id="Pfad_301" data-name="Pfad 301" d="M493.037,360.458s-7.415,13.956-6.464,19.595,10.139,5.232,18.163.655l5.607-15.071Z" transform="translate(-486.489 -350.309)" fill="#f7b58e"/>
        <path id="Pfad_302" data-name="Pfad 302" d="M503.164,377.8a.575.575,0,0,1-.251-.841,14.971,14.971,0,0,0,2.064-4.38s1.333-.854-3.393-1.985-11.771-2.886-13.253-6.909c-1.444-3.921,2.35-13.784,8.4-5.926a.574.574,0,0,0,.911.007c.994-1.291,3.6-3.973,7.224-2.348,3.39,1.521,3.772,4.005,3.725,5.257a.572.572,0,0,0,.676.586c1.715-.328,5.827-.608,7.746,3.61,1.582,3.476.554,5.442-.382,6.4a.573.573,0,0,0,.246.952c1.126.344,2.581,1.3,2.436,3.939-.2,3.648-4.281,3.325-5.442,3.16a.579.579,0,0,0-.511.179c-1,1.1-5.483,5.781-10.338,6.346a.58.58,0,0,1-.608-.768l2.1-6.107a.581.581,0,0,0-.314-.717Z" transform="translate(-485.271 -354.799)" fill="#240066"/>
        <path id="Pfad_303" data-name="Pfad 303" d="M496.719,368.9s5.278-3.623,5.664-.572-4.755,4.418-7.3,3.28Z" transform="translate(-479.669 -345.035)" fill="#f7b58e"/>
      </g>
    </g>
    <path id="Pfad_304" data-name="Pfad 304" d="M423.509,483.034c12.937-17.39,24.105-39.84,32.266-68.681" transform="translate(218.418 132.424)" fill="none" stroke="#240066" stroke-linecap="round" stroke-miterlimit="10" stroke-width="1.175" stroke-dasharray="2.835 2.835"/>
    <path id="Pfad_305" data-name="Pfad 305" d="M269.5,461.752c-6.715,58.468,52.053,77.507,72.074,77.507" transform="translate(95.78 170.038)" fill="none" stroke="#240066" stroke-linecap="round" stroke-miterlimit="10" stroke-width="1.175" stroke-dasharray="2.835 2.835"/>
    <path id="Pfad_306" data-name="Pfad 306" d="M283.062,401.216a147.279,147.279,0,0,0-6.672,23.444" transform="translate(101.67 121.999)" fill="none" stroke="#240066" stroke-linecap="round" stroke-miterlimit="10" stroke-width="1.175" stroke-dasharray="2.835 2.835"/>
    <g id="Gruppe_189" data-name="Gruppe 189" transform="translate(325.956 559.534)">
      <rect id="Rechteck_67" data-name="Rechteck 67" width="0.32" height="4.879" transform="translate(0 30.354) rotate(-6.671)" fill="#fff"/>
      <rect id="Rechteck_68" data-name="Rechteck 68" width="0.32" height="2.46" transform="translate(0.777 37.001) rotate(-6.672)" fill="#fff"/>
      <path id="Pfad_307" data-name="Pfad 307" d="M269.517,434.334l-.378-1.058a3.421,3.421,0,0,0-3.619-2.249l-15.041,1.76a3.422,3.422,0,0,0-3,3.8l4.281,36.6a2.347,2.347,0,0,0,2.6,2.057l53.818-6.294a2.347,2.347,0,0,0,2.057-2.6l-3.7-31.644a2.344,2.344,0,0,0-2.6-2.057L272.682,436.3A2.993,2.993,0,0,1,269.517,434.334Z" transform="translate(-247.248 -413.897)" fill="#240066"/>
      <g id="Gruppe_178" data-name="Gruppe 178" transform="translate(6.767 4.518)">
        <g id="Gruppe_176" data-name="Gruppe 176">
          <rect id="Rechteck_69" data-name="Rechteck 69" width="17.339" height="23.887" transform="translate(0 3.389) rotate(-11.271)" fill="#fff"/>
          <rect id="Rechteck_70" data-name="Rechteck 70" width="17.339" height="23.887" transform="translate(0 3.389) rotate(-11.271)" fill="#56c063"/>
        </g>
        <g id="Gruppe_177" data-name="Gruppe 177" transform="translate(3.138 3.78)" opacity="0.4">
          <path id="Pfad_308" data-name="Pfad 308" d="M264.458,427.95l-10.474,2.088a.938.938,0,0,1-1.1-.737h0a.937.937,0,0,1,.735-1.1l10.474-2.088a.938.938,0,0,1,1.1.737h0A.936.936,0,0,1,264.458,427.95Z" transform="translate(-252.862 -426.092)" fill="#fff"/>
          <path id="Pfad_309" data-name="Pfad 309" d="M264.887,430.11,254.413,432.2a.94.94,0,0,1-1.1-.737h0a.94.94,0,0,1,.737-1.1l10.474-2.088a.94.94,0,0,1,1.1.737h0A.939.939,0,0,1,264.887,430.11Z" transform="translate(-252.52 -424.378)" fill="#fff"/>
          <path id="Pfad_310" data-name="Pfad 310" d="M265.319,432.27l-10.474,2.086a.936.936,0,0,1-1.1-.735h0a.936.936,0,0,1,.735-1.1l10.474-2.088a.935.935,0,0,1,1.1.737h0A.937.937,0,0,1,265.319,432.27Z" transform="translate(-252.178 -422.664)" fill="#fff"/>
          <path id="Pfad_311" data-name="Pfad 311" d="M265.748,434.429l-10.474,2.088a.936.936,0,0,1-1.1-.735h0a.937.937,0,0,1,.737-1.1l10.474-2.088a.937.937,0,0,1,1.1.735h0A.939.939,0,0,1,265.748,434.429Z" transform="translate(-251.837 -420.95)" fill="#fff"/>
          <path id="Pfad_312" data-name="Pfad 312" d="M263.315,436.907l-7.612,1.517a.936.936,0,0,1-1.1-.737h0a.937.937,0,0,1,.735-1.1l7.612-1.516a.936.936,0,0,1,1.1.735h0A.936.936,0,0,1,263.315,436.907Z" transform="translate(-251.495 -418.983)" fill="#fff"/>
        </g>
      </g>
      <g id="Gruppe_181" data-name="Gruppe 181" transform="translate(30.822)">
        <g id="Gruppe_179" data-name="Gruppe 179">
          <rect id="Rechteck_71" data-name="Rechteck 71" width="17.339" height="23.887" transform="translate(0 2.351) rotate(-7.793)" fill="#fff"/>
          <rect id="Rechteck_72" data-name="Rechteck 72" width="17.339" height="23.887" transform="translate(0 2.351) rotate(-7.793)" fill="#56c063"/>
        </g>
        <g id="Gruppe_180" data-name="Gruppe 180" transform="translate(2.922 3.622)" opacity="0.4">
          <path id="Pfad_313" data-name="Pfad 313" d="M277.8,425.352,267.218,426.8a.939.939,0,0,1-1.056-.8h0a.938.938,0,0,1,.8-1.056l10.582-1.449a.936.936,0,0,1,1.055.8h0A.935.935,0,0,1,277.8,425.352Z" transform="translate(-266.153 -423.485)" fill="#fff"/>
          <path id="Pfad_314" data-name="Pfad 314" d="M278.1,427.534l-10.582,1.449a.938.938,0,0,1-1.056-.8h0a.938.938,0,0,1,.8-1.056l10.582-1.449a.938.938,0,0,1,1.056.8h0A.937.937,0,0,1,278.1,427.534Z" transform="translate(-265.916 -421.754)" fill="#fff"/>
          <path id="Pfad_315" data-name="Pfad 315" d="M270.731,430.3l-2.915.4a.937.937,0,0,1-1.056-.8h0a.936.936,0,0,1,.8-1.056l2.915-.4a.937.937,0,0,1,1.056.8h0A.937.937,0,0,1,270.731,430.3Z" transform="translate(-265.679 -419.558)" fill="#fff"/>
          <path id="Pfad_316" data-name="Pfad 316" d="M273.885,429.87l-2.916.4a.938.938,0,0,1-1.056-.8h0a.938.938,0,0,1,.8-1.056l2.916-.4a.938.938,0,0,1,1.056.8h0A.938.938,0,0,1,273.885,429.87Z" transform="translate(-263.177 -419.9)" fill="#fff"/>
          <path id="Pfad_317" data-name="Pfad 317" d="M278.7,431.9l-10.582,1.449a.938.938,0,0,1-1.056-.8h0a.936.936,0,0,1,.8-1.055l10.582-1.449a.938.938,0,0,1,1.056.8h0A.938.938,0,0,1,278.7,431.9Z" transform="translate(-265.442 -418.29)" fill="#fff"/>
          <path id="Pfad_318" data-name="Pfad 318" d="M276.1,434.3l-7.689,1.051a.937.937,0,0,1-1.056-.8h0a.939.939,0,0,1,.8-1.056l7.691-1.051a.935.935,0,0,1,1.055.8h0A.937.937,0,0,1,276.1,434.3Z" transform="translate(-265.205 -416.384)" fill="#fff"/>
        </g>
      </g>
      <g id="Gruppe_184" data-name="Gruppe 184" transform="translate(14.517 3.458)">
        <g id="Gruppe_182" data-name="Gruppe 182">
          <rect id="Rechteck_73" data-name="Rechteck 73" width="17.339" height="23.887" transform="translate(0 1.505) rotate(-4.981)" fill="#fff"/>
          <rect id="Rechteck_74" data-name="Rechteck 74" width="17.339" height="23.887" transform="translate(0 1.505) rotate(-4.981)" fill="#6fff81"/>
        </g>
        <g id="Gruppe_183" data-name="Gruppe 183" transform="translate(2.738 3.484)" opacity="0.4">
          <path id="Pfad_319" data-name="Pfad 319" d="M268.62,427.207l-10.639.927a.938.938,0,0,1-1.017-.852h0a.937.937,0,0,1,.854-1.015l10.639-.927a.936.936,0,0,1,1.017.852h0A.937.937,0,0,1,268.62,427.207Z" transform="translate(-256.96 -425.336)" fill="#fff"/>
          <path id="Pfad_320" data-name="Pfad 320" d="M268.81,429.4l-10.639.927a.936.936,0,0,1-1.015-.852h0a.936.936,0,0,1,.852-1.015l10.641-.929a.938.938,0,0,1,1.015.854h0A.937.937,0,0,1,268.81,429.4Z" transform="translate(-256.808 -423.596)" fill="#fff"/>
          <path id="Pfad_321" data-name="Pfad 321" d="M269,431.6l-10.641.927a.937.937,0,0,1-1.015-.852h0a.939.939,0,0,1,.852-1.017l10.641-.927a.938.938,0,0,1,1.015.854h0A.937.937,0,0,1,269,431.6Z" transform="translate(-256.656 -421.854)" fill="#fff"/>
          <path id="Pfad_322" data-name="Pfad 322" d="M269.194,433.789l-10.641.927a.938.938,0,0,1-1.015-.852h0a.939.939,0,0,1,.854-1.017l10.639-.927a.937.937,0,0,1,1.015.854h0A.938.938,0,0,1,269.194,433.789Z" transform="translate(-256.505 -420.113)" fill="#fff"/>
          <path id="Pfad_323" data-name="Pfad 323" d="M266.478,436.124l-7.732.674a.939.939,0,0,1-1.017-.852h0a.939.939,0,0,1,.854-1.017l7.732-.674a.937.937,0,0,1,1.015.854h0A.937.937,0,0,1,266.478,436.124Z" transform="translate(-256.353 -418.26)" fill="#fff"/>
        </g>
      </g>
      <g id="Gruppe_187" data-name="Gruppe 187" transform="translate(35.524 2.297)">
        <g id="Gruppe_185" data-name="Gruppe 185">
          <rect id="Rechteck_75" data-name="Rechteck 75" width="17.339" height="23.887" transform="matrix(0.999, -0.048, 0.048, 0.999, 0, 0.836)" fill="#fff"/>
          <rect id="Rechteck_76" data-name="Rechteck 76" width="17.339" height="23.887" transform="matrix(0.999, -0.048, 0.048, 0.999, 0, 0.836)" fill="#6fff81"/>
        </g>
        <g id="Gruppe_186" data-name="Gruppe 186" transform="translate(2.588 3.365)" opacity="0.4">
          <path id="Pfad_324" data-name="Pfad 324" d="M280.239,426.5l-10.668.515a.938.938,0,0,1-.981-.891h0a.938.938,0,0,1,.891-.983l10.668-.515a.938.938,0,0,1,.981.891h0A.937.937,0,0,1,280.239,426.5Z" transform="translate(-268.588 -424.622)" fill="#fff"/>
          <path id="Pfad_325" data-name="Pfad 325" d="M280.345,428.7l-10.668.515a.938.938,0,0,1-.981-.891h0a.937.937,0,0,1,.891-.983l10.668-.515a.938.938,0,0,1,.981.891h0A.938.938,0,0,1,280.345,428.7Z" transform="translate(-268.504 -422.876)" fill="#fff"/>
          <path id="Pfad_326" data-name="Pfad 326" d="M272.722,431.1l-2.94.142a.937.937,0,0,1-.981-.891h0a.938.938,0,0,1,.891-.981l2.94-.142a.936.936,0,0,1,.981.891h0A.937.937,0,0,1,272.722,431.1Z" transform="translate(-268.42 -420.966)" fill="#fff"/>
          <path id="Pfad_327" data-name="Pfad 327" d="M275.9,430.952l-2.94.142a.938.938,0,0,1-.983-.891h0a.939.939,0,0,1,.891-.983l2.94-.142a.939.939,0,0,1,.983.891h0A.938.938,0,0,1,275.9,430.952Z" transform="translate(-265.898 -421.088)" fill="#fff"/>
          <path id="Pfad_328" data-name="Pfad 328" d="M280.558,433.1l-10.668.515a.938.938,0,0,1-.983-.891h0a.938.938,0,0,1,.891-.983l10.668-.515a.939.939,0,0,1,.983.891h0A.938.938,0,0,1,280.558,433.1Z" transform="translate(-268.336 -419.386)" fill="#fff"/>
          <path id="Pfad_329" data-name="Pfad 329" d="M277.748,435.375,270,435.75a.938.938,0,0,1-.983-.891h0a.938.938,0,0,1,.891-.983l7.754-.375a.938.938,0,0,1,.981.891h0A.937.937,0,0,1,277.748,435.375Z" transform="translate(-268.252 -417.578)" fill="#fff"/>
        </g>
      </g>
      <g id="Gruppe_188" data-name="Gruppe 188" transform="translate(5.064 17.863)">
        <path id="Pfad_330" data-name="Pfad 330" d="M272.17,434.677l-.276-1.037a3.031,3.031,0,0,0-3.372-2.192l-15.041,1.76a3.77,3.77,0,0,0-3.318,3.722l.852,35.832a2.072,2.072,0,0,0,2.385,2.009l53.816-6.3a2.59,2.59,0,0,0,2.276-2.552l-.739-30.975a2.069,2.069,0,0,0-2.384-2.009l-31.251,3.655A2.65,2.65,0,0,1,272.17,434.677Z" transform="translate(-250.162 -431.425)" fill="#fff"/>
        <path id="Pfad_331" data-name="Pfad 331" d="M272.17,434.677l-.276-1.037a3.031,3.031,0,0,0-3.372-2.192l-15.041,1.76a3.77,3.77,0,0,0-3.318,3.722l.852,35.832a2.072,2.072,0,0,0,2.385,2.009l53.816-6.3a2.59,2.59,0,0,0,2.276-2.552l-.739-30.975a2.069,2.069,0,0,0-2.384-2.009l-31.251,3.655A2.65,2.65,0,0,1,272.17,434.677Z" transform="translate(-250.162 -431.425)" fill="#3c3bfc"/>
      </g>
    </g>
    <g id="Gruppe_191" data-name="Gruppe 191" transform="translate(550.257 821.802)">
      <path id="Pfad_332" data-name="Pfad 332" d="M372.4,602.666l42.166-34.972,42.166,34.972v49.482H372.4Z" transform="translate(-372.398 -567.693)" fill="#240066"/>
      <rect id="Rechteck_77" data-name="Rechteck 77" width="58.346" height="57.416" rx="0.429" transform="translate(12.992 7.197)" fill="#fff"/>
      <g id="Gruppe_190" data-name="Gruppe 190" transform="translate(20.354 14.558)">
        <rect id="Rechteck_78" data-name="Rechteck 78" width="25.658" height="3.06" transform="translate(17.966)" fill="#ddd"/>
        <rect id="Rechteck_79" data-name="Rechteck 79" width="25.658" height="3.061" transform="translate(17.966 6.044)" fill="#ddd"/>
        <rect id="Rechteck_80" data-name="Rechteck 80" width="15.148" height="15.148" fill="#6fff81"/>
        <rect id="Rechteck_81" data-name="Rechteck 81" width="25.658" height="3.061" transform="translate(17.966 12.087)" fill="#ddd"/>
        <rect id="Rechteck_82" data-name="Rechteck 82" width="43.624" height="3.061" transform="translate(0 18.131)" fill="#ddd"/>
        <rect id="Rechteck_83" data-name="Rechteck 83" width="43.624" height="3.06" transform="translate(0 30.219)" fill="#ddd"/>
        <rect id="Rechteck_84" data-name="Rechteck 84" width="43.624" height="3.061" transform="translate(0 24.175)" fill="#ddd"/>
        <rect id="Rechteck_85" data-name="Rechteck 85" width="43.624" height="3.061" transform="translate(0 36.263)" fill="#ddd"/>
        <rect id="Rechteck_86" data-name="Rechteck 86" width="43.624" height="3.061" transform="translate(0 42.307)" fill="#ddd"/>
      </g>
      <path id="Pfad_333" data-name="Pfad 333" d="M372.4,587.192l34.967,24.741L372.4,636.674Z" transform="translate(-372.398 -552.22)" fill="#3c3bfc"/>
      <path id="Pfad_334" data-name="Pfad 334" d="M434.888,587.192l-34.967,24.741,34.967,24.741Z" transform="translate(-350.557 -552.22)" fill="#3c3bfc"/>
      <path id="Pfad_335" data-name="Pfad 335" d="M421.792,601H407.365v-.021L372.4,625.737H456.73Z" transform="translate(-372.398 -541.282)" fill="#240066"/>
    </g>
    <path id="Pfad_336" data-name="Pfad 336" d="M549.525,509.934C534.531,570.648,520.52,625.854,423.8,664.35" transform="translate(218.652 208.273)" fill="none" stroke="#3c3bfc" stroke-linecap="round" stroke-miterlimit="10" stroke-width="1.175" stroke-dasharray="2.835 2.835"/>
    <circle id="Ellipse_39" data-name="Ellipse 39" cx="12.542" cy="12.542" r="12.542" transform="translate(246.152 367.883)" fill="#3c3bfc"/>
    <circle id="Ellipse_40" data-name="Ellipse 40" cx="12.542" cy="12.542" r="12.542" transform="translate(590.489 448.376)" fill="#3c3bfc"/>
    <g id="Gruppe_193" data-name="Gruppe 193" transform="translate(172.33 680.323)">
      <g id="Gruppe_192" data-name="Gruppe 192" transform="translate(0 5.445)">
        <path id="Pfad_337" data-name="Pfad 337" d="M223.178,656.946s.8,9.97.151,13.21c-.348,1.734-2.285,5.307-1.4,6.939a4.428,4.428,0,0,0,1.9,2.041l23.027.364c1.255.02.425-.773-.585-1.5-1.655-1.2-2.992-1.989-8.281-4.5-.344-.165-1.6-.951-2.052-1.221a15.88,15.88,0,0,1-3.295-2.863c-1.654-1.81-1.8-10.589-1.8-10.589Z" transform="translate(-114.058 -360.833)" fill="#f7b58e"/>
        <path id="Pfad_338" data-name="Pfad 338" d="M242.915,584.166s9.9-4.88,7.994,5.732S234.5,719.85,234.5,719.85l-13.584.753s-1.734-39.788-1.354-45.5a104.45,104.45,0,0,1,2.631-14.553l1.153-35.3,12.815-43.582Z" transform="translate(-115.797 -420.571)" fill="#240066"/>
        <path id="Pfad_339" data-name="Pfad 339" d="M235.966,665.714a21.182,21.182,0,0,1-13.111-.508c-.649,1.812-1.51,4.082-1.053,5.391.558,1.6,1.288,2.316,1.991,2.333,5.562.144,20.443-.011,24.685.043a.681.681,0,0,0,.538-1.121C247.965,670.619,236.419,665.986,235.966,665.714Z" transform="translate(-114.081 -354.278)" fill="#240066"/>
        <path id="Pfad_340" data-name="Pfad 340" d="M215.253,620.512s-6.9-7.239-8.439-10.164c-.823-1.566-1.568-5.56-3.288-6.268a4.427,4.427,0,0,0-2.764-.384L182.65,617.92c-.986.775.158.868,1.4.8,2.039-.113,3.576-.339,9.267-1.718.371-.09,1.84-.271,2.364-.344a15.832,15.832,0,0,1,4.36.147c2.425.364,8.069,7.09,8.069,7.09Z" transform="translate(-145.344 -403.149)" fill="#f7b58e"/>
        <path id="Pfad_341" data-name="Pfad 341" d="M196.2,616.825a21.172,21.172,0,0,1,10.5-7.865c-.635-1.815-1.331-4.188-2.511-4.918-1.444-.891-2.439-.707-3-.278-4.41,3.392-15.956,12.675-19.283,15.306a.68.68,0,0,0,.287,1.209C183.787,620.575,195.672,616.9,196.2,616.825Z" transform="translate(-145.851 -403.319)" fill="#240066"/>
        <path id="Pfad_342" data-name="Pfad 342" d="M193.886,585.832c9.832,16.623,24.088,7.287,23.474,7.357a47.127,47.127,0,0,1,5.221.963c7.825,1.517,16.19-2.38,21-9.022,11.959,1.205,22.066-7.736,20.848-17.814,6.627-5.18,7.441-15.746,4.123-23.413,1.383-10.964-12.169-16.058-22.671-14.569a21.209,21.209,0,0,0-13.748,8.363c-9.221-2.4-18.741,2.559-23.036,11.572C193.734,549.906,183.855,568.869,193.886,585.832Z" transform="translate(-139.354 -462.301)" fill="#240066"/>
        <path id="Pfad_343" data-name="Pfad 343" d="M268.018,589.112s-22.2-9.87-22.547-8.744c-2.784,8.962-11.443,6.071-16.583,21.858-2.152,6.611-4.362,50.589-4.362,50.589s-8.753-7.264-21.261-19.955c-.96-.974-10.365,7.969-10.365,7.969,24.83,33.545,35.539,35.3,39.682,33.418,8.649-3.921,26.9-58.762,26.868-58.757C261.64,611.221,268.018,589.112,268.018,589.112Z" transform="translate(-136.914 -421.673)" fill="#3c3bfc"/>
        <path id="Pfad_344" data-name="Pfad 344" d="M255.988,555.137s-32.085-.041-38.954-.438c-6.218-.359-30.876.269-31.841.158s-7.337-10.907-8.4-9.748,3.548,5.354,2.122,6.441-16.727-1.349-16.524-.217c.38,2.118,9.309,1.847,9.3,2.87s-9.344-.574-9.978,1.123,8.979.692,9.362,1.449-8.916,2.143-7.963,3.722c.517.857,8.24-1.431,8.2-.264s-5.673,3.828-4.981,4.757,4.421-2.855,7.691-2.9,5.61-1.752,10.83-.321c2.577.707,22.251,3.112,38.874,4.532,17.042,1.456,31.011,1.919,31.011,1.919Z" transform="translate(-161.685 -449.651)" fill="#f7b58e"/>
        <path id="Pfad_345" data-name="Pfad 345" d="M258.984,581.229a40.827,40.827,0,0,0-.82-10.828c1.559-5.352,4.873-16.768,6.066-19.012,0,0-5.587-10.734-11.3-10.661,0,0-5.84,13.165-10.356,15.52a11.31,11.31,0,0,1-2.271.678c-4.36-.032-19.593-.493-22.437-.545l1.6,21.614c11.039,21.639,8.049,32.994,3.851,37.195-1.976,1.975,27.547,9.994,28.907,7.2C253.82,619.085,258.125,591.642,258.984,581.229Z" transform="translate(-117.106 -453.059)" fill="#6fff81"/>
        <path id="Pfad_346" data-name="Pfad 346" d="M233.055,550.282c-2.81-1.343-23.144-.671-23.144-.671s-2.843,14.16-.547,17.564c0,0,18.183,2.7,17.665,4.2Z" transform="translate(-124.56 -446.143)" fill="#6fff81"/>
        <path id="Pfad_347" data-name="Pfad 347" d="M235.276,568.493c6.816.131,1-7.235.4-10.4s-1.313-15.557-1.313-15.557l-9.2,4.129a105.3,105.3,0,0,1-.005,10.941c-.36,3.216,3.3,10.758,10.119,10.889" transform="translate(-111.336 -451.625)" fill="#f39f85"/>
        <path id="Pfad_348" data-name="Pfad 348" d="M228.159,532.123a11.334,11.334,0,0,0-6.026,5.017c-2.167,3.862-3.078,14.854,5.246,19.381s14.031-3.081,13.651-10.094S238.5,530.17,228.159,532.123Z" transform="translate(-114.898 -460.097)" fill="#f7b58e"/>
        <path id="Pfad_349" data-name="Pfad 349" d="M234.683,540.369c-.565,1.738-1.842,2.879-2.854,2.55s-1.376-2-.812-3.74,1.842-2.88,2.854-2.552S235.247,538.631,234.683,540.369Z" transform="translate(-106.877 -456.357)" fill="#f7b58e"/>
        <path id="Pfad_350" data-name="Pfad 350" d="M231.008,531.833s-4.227,11.558-8.55,12.862-3.872,6.943-3.872,6.943-.8-13.037,3.112-16.309A17.368,17.368,0,0,1,231.008,531.833Z" transform="translate(-116.585 -460.117)" fill="#240066"/>
        <path id="Pfad_351" data-name="Pfad 351" d="M223.859,541.333c.7,1.781.3,3.61-.906,4.086s-2.751-.583-3.454-2.364-.3-3.61.906-4.086S223.156,539.552,223.859,541.333Z" transform="translate(-116.081 -454.545)" fill="#f7b58e"/>
        <path id="Pfad_352" data-name="Pfad 352" d="M251.283,509.559c1.462-1.293,2.081-18.158,3.248-17.7,2.181.852.013,10.334,1.107,10.541s1.356-10.1,3.3-10.424-1.151,9.739-.423,10.309,4.166-9.075,5.651-7.727c.807.734-3.264,8.5-2.007,8.709s5.282-5.255,6.13-4.321-3.983,4.123-4.721,7.606c-.717,3.386-2.907,5.533-2.633,11.05.617,5.942-1.822,36.424-2.6,43.454C257.5,568.738,247.1,592.39,247.1,592.39l-10.082-8.668s8.369-16.1,9.665-22.014,6.543-34.91,6.164-36.825l.647-7.922" transform="translate(-101.905 -491.848)" fill="#f7b58e"/>
      </g>
      <circle id="Ellipse_41" data-name="Ellipse 41" cx="12.542" cy="12.542" r="12.542" transform="translate(141.302)" fill="#3c3bfc"/>
    </g>
    <path id="Pfad_353" data-name="Pfad 353" d="M210.889,333.2s-3.158-.949-3.652-6.712-3.218-3.98-3.218-3.98,1.417,22.719,5.038,23.574S210.889,333.2,210.889,333.2Z" transform="translate(44.24 59.338)" fill="#f7b58e"/>
    <path id="Pfad_354" data-name="Pfad 354" d="M248.391,510.964c-3.164-3.212-6-10.333-4.539-11.221s2.811,4.224,4.566,5.443" transform="translate(75.536 200.105)" fill="#f7b58e"/>
    <path id="Pfad_355" data-name="Pfad 355" d="M257.767,496.347c25.755-2.131,37.046,9.373,52.112,36.434,28.747,51.637,18.337,153.1,142.079,153.1" transform="translate(86.892 197.294)" fill="none" stroke="#3c3bfc" stroke-linecap="round" stroke-miterlimit="10" stroke-width="1.175" stroke-dasharray="2.835 2.835"/>
  </g>
</svg>
