<?xml version="1.0" encoding="UTF-8"?> <svg xmlns="http://www.w3.org/2000/svg" width="106.851" height="40" viewBox="0 0 106.851 40"><defs><style>.a{fill:#87c540;}.b{fill:#294aff;}.c{fill:#70b744;}</style></defs><path class="a" d="M117.615,20.835c-1.942-.793-3.845-1.467-5.669-2.022a4.175,4.175,0,0,0-.555-.158c-1.467,2.3-2.854,4.678-4.243,7.175C103.3,32.768,99.7,40.419,96.287,48.348,103.66,36.337,110.4,31.7,117.615,27.615c2.1-1.189,4.243-2.3,6.422-3.568.159-.079.277-.158.437-.238-.159-.039-.277-.118-.437-.158C121.858,22.619,119.716,21.668,117.615,20.835Z" transform="translate(-43.562 -8.348)"></path><rect class="b" width="2.696" height="10.506" transform="translate(39.128 23.865)"></rect><path class="b" d="M18.219,35.262,14.255,44.38c-.277.634-.357.912-.594,1.546a19.266,19.266,0,0,0-.832-2.22L8.982,35.262H7.317l-2.3,14.47h2.5l1.07-7.374a13.611,13.611,0,0,0,.159-1.745,7.753,7.753,0,0,0,.515,1.626l3.409,7.493h1.546l3.171-7.215a10.856,10.856,0,0,0,.674-1.9c.04.714.079.951.158,1.824l1.031,7.294h2.933l-2.26-14.47Z" transform="translate(-5.018 -15.361)"></path><path class="b" d="M62.172,43.2V41.892H59.437V52.4h2.735V44.271a3.551,3.551,0,0,1,2.1-.713,4.114,4.114,0,0,1,1.824.475V41.654a5.417,5.417,0,0,0-.793-.079A3.772,3.772,0,0,0,62.172,43.2Z" transform="translate(-28 -18.027)"></path><path class="b" d="M48.154,47.326a6.24,6.24,0,0,0-1.506-4.6A5.284,5.284,0,0,0,42.843,41.3h-.2a5.333,5.333,0,0,0-5.511,5.629,5.416,5.416,0,0,0,5.511,5.788h.277c3.607,0,4.44-2.14,4.916-3.29l-.674-.317a3.886,3.886,0,0,1-3.409,1.863,5.055,5.055,0,0,1-1.11-.118c-2.22-.555-2.5-2.855-2.577-3.528h8.087Zm-5.51-4.282h.119c2.062,0,2.3,1.745,2.419,2.7H40.147C40.385,44.709,40.781,43.124,42.645,43.044Z" transform="translate(-18.581 -17.911)"></path><path class="b" d="M85.876,49.671a1.647,1.647,0,0,1-1.546-.951,3.009,3.009,0,0,1-.317-1.664V41.7h2.418V40.038H84.013V37.184H81.277v2.854H79.612V41.7h1.665v5.788a3.41,3.41,0,0,0,.872,2.617,3.276,3.276,0,0,0,2.379.832,4.7,4.7,0,0,0,2.7-.832l-.317-.674A2.818,2.818,0,0,1,85.876,49.671Z" transform="translate(-36.52 -16.173)"></path><path class="b" d="M120.76.95c-.832.277-1.7.555-2.616.912a62.554,62.554,0,0,0-8.522,3.845,25.259,25.259,0,0,0-4.48,3.092,29.2,29.2,0,0,1,4.48.357,47.235,47.235,0,0,1,4.915,1.03c1.15-1.942,2.378-3.805,3.607-5.59C119.015,3.328,119.888,2.1,120.76.95Z" transform="translate(-47.302 -0.871)"></path><path class="b" d="M73.953,34.507a1.54,1.54,0,0,0-1.545,1.506,1.492,1.492,0,0,0,1.545,1.546,1.526,1.526,0,0,0,0-3.052Z" transform="translate(-33.478 -15.043)"></path><path class="b" d="M129.949.813c-1.467,1.784-2.854,3.726-4.242,5.748-.912,1.308-1.784,2.616-2.656,4a2.259,2.259,0,0,1,.476.159c.713.2,1.427.436,2.18.713A98.313,98.313,0,0,1,136.171,15.8C134.151,9.732,132.565,4.658,129.949.813Z" transform="translate(-54.865 -0.813)"></path><path class="b" d="M100.865,15.836c-2.18,10.466-3.529,22-4.441,30.09,2.974-7.294,6.145-14.272,9.516-20.734.118-.2.237-.4.316-.555,1.388-2.616,2.775-5.074,4.2-7.453a33.285,33.285,0,0,0-4.519-.991A28.063,28.063,0,0,0,100.865,15.836Z" transform="translate(-43.62 -7.154)"></path><g transform="translate(67.276 19.84)"><path class="c" d="M126.38,43.42a4.879,4.879,0,0,1,3.678-1.933c1.724,0,3.262,1.08,3.262,3.595,0,3.178-2.348,7.709-7.169,7.709a11.431,11.431,0,0,1-1.89-.208l-1.018,4.4h-1.767L124.967,41.9h1.766Zm-1.849,8.02a6.078,6.078,0,0,0,1.33.166c3.948,0,5.547-4.176,5.547-6.192,0-1.517-.664-2.638-2.035-2.638-1.828,0-3.325,2.078-3.325,2.119Z" transform="translate(-121.476 -37.83)"></path><path class="c" d="M151.019,50.875a5.058,5.058,0,0,1-3.781,1.995c-1.953,0-3.18-1.5-3.18-3.7a7.563,7.563,0,0,1,7.916-7.4,16.662,16.662,0,0,1,2.806.291l-2.431,10.555h-1.724Zm1.809-7.791a7.878,7.878,0,0,0-1.351-.125c-4.115,0-5.548,4.343-5.548,6.192,0,1.621.872,2.494,2.036,2.494a3.707,3.707,0,0,0,2.66-1.351,10.624,10.624,0,0,0,.748-.914Z" transform="translate(-131.013 -37.952)"></path><path class="c" d="M167.116,35.157h1.766L165.5,49.826h-1.767Z" transform="translate(-139.32 -35.157)"></path><path class="c" d="M177.1,35.157l-1.891,8.187,5.133-4.093h2.015l-5.484,4.384,3.24,4.634a8.258,8.258,0,0,0,1.351,1.558h-2.077a3.752,3.752,0,0,1-.81-.81l-3.511-5.028-1.351,5.838h-1.787l3.366-14.669H177.1Z" transform="translate(-142.783 -35.157)"></path></g></svg> 