<svg xmlns="http://www.w3.org/2000/svg" width="96.952" height="102.429" viewBox="0 0 96.952 102.429">
  <g id="ARW1" transform="translate(1.215 1.215)">
    <path id="Pfad_27" data-name="Pfad 27" d="M1023.52,2818.819a46.672,46.672,0,0,0,22.238,39.79,3.739,3.739,0,0,1-1.948,6.913h-.138a46.7,46.7,0,0,1-46.7-46.7h0v-22.165H979.117l31.132-31.132,31.132,31.132h-17.853Z" transform="translate(-979.117 -2765.522)" fill="#6fff81" stroke="#240066" stroke-linecap="round" stroke-linejoin="round" stroke-width="2.429"/>
    <path id="Pfad_28" data-name="Pfad 28" d="M1011.2,2776.426l10.9-10.9,25.137,25.139h-14.415l-.005,29.085a37.685,37.685,0,0,0,17.957,32.128,3.019,3.019,0,0,1-1.573,5.582l-.112,0a37.712,37.712,0,0,1-37.71-37.712v-15.728" transform="translate(-957.728 -2765.522)" fill="none" stroke="#240066" stroke-linecap="round" stroke-linejoin="round" stroke-width="2.429"/>
  </g>
</svg>
