<svg xmlns="http://www.w3.org/2000/svg" width="102.315" height="102.482" viewBox="0 0 102.315 102.482">
  <g id="COG" transform="translate(1.215 1.267)">
    <g id="Gruppe_3" data-name="Gruppe 3" transform="translate(0)">
      <path id="Pfad_15" data-name="Pfad 15" d="M1057.622,2358.437l-5.933-4.1a.222.222,0,0,1-.092-.215,18.872,18.872,0,0,0,.01-5.631.22.22,0,0,1,.093-.213l5.948-4.078a1.107,1.107,0,0,0,.4-1.337l-1.405-3.41a1.109,1.109,0,0,0-1.223-.668l-7.1,1.3a.222.222,0,0,1-.217-.087,18.893,18.893,0,0,0-3.972-3.99.22.22,0,0,1-.087-.217l1.322-7.09a1.109,1.109,0,0,0-.665-1.227l-3.4-1.418a1.108,1.108,0,0,0-1.338.394l-4.1,5.932a.222.222,0,0,1-.215.093,18.929,18.929,0,0,0-5.633-.01.22.22,0,0,1-.213-.092l-4.078-5.948a1.1,1.1,0,0,0-1.337-.4l-3.41,1.405a1.107,1.107,0,0,0-.668,1.223l1.3,7.1a.219.219,0,0,1-.087.217,18.86,18.86,0,0,0-3.99,3.972.216.216,0,0,1-.217.085l-7.09-1.32a1.11,1.11,0,0,0-1.227.663l-1.418,3.405a1.11,1.11,0,0,0,.393,1.338l5.937,4.1a.221.221,0,0,1,.092.215,18.92,18.92,0,0,0-.013,5.63.217.217,0,0,1-.093.214l-5.948,4.08a1.109,1.109,0,0,0-.4,1.337l1.405,3.408a1.11,1.11,0,0,0,1.225.67l7.1-1.3a.219.219,0,0,1,.217.087,18.943,18.943,0,0,0,3.973,3.988.221.221,0,0,1,.085.217l-1.322,7.092a1.112,1.112,0,0,0,.663,1.227l3.405,1.417a1.108,1.108,0,0,0,1.338-.392l4.1-5.935a.221.221,0,0,1,.215-.092,18.912,18.912,0,0,0,5.628.01.221.221,0,0,1,.215.092l4.08,5.95a1.107,1.107,0,0,0,1.337.4l3.408-1.405a1.105,1.105,0,0,0,.668-1.223l-1.3-7.1a.223.223,0,0,1,.087-.218,18.934,18.934,0,0,0,3.989-3.972.219.219,0,0,1,.217-.087l7.092,1.323a1.11,1.11,0,0,0,1.227-.665l1.417-3.4A1.106,1.106,0,0,0,1057.622,2358.437Zm-18.759-4.638a6.574,6.574,0,1,1-3.542-8.6A6.573,6.573,0,0,1,1038.864,2353.8Z" transform="translate(-958.298 -2325.935)" fill="#6fff81" stroke="#240066" stroke-miterlimit="10" stroke-width="2.43"/>
      <path id="Pfad_16" data-name="Pfad 16" d="M1040.027,2376.146l-8.383-1.79a.261.261,0,0,1-.2-.193,22.418,22.418,0,0,0-2.56-6.182.259.259,0,0,1,0-.276l4.662-7.192a1.316,1.316,0,0,0-.173-1.648l-3.1-3.1a1.317,1.317,0,0,0-1.648-.175l-7.193,4.664a.264.264,0,0,1-.277,0,22.406,22.406,0,0,0-6.182-2.562.261.261,0,0,1-.192-.2l-1.79-8.38a1.318,1.318,0,0,0-1.288-1.043h-4.383a1.318,1.318,0,0,0-1.288,1.043l-1.787,8.38a.261.261,0,0,1-.193.2,22.519,22.519,0,0,0-6.185,2.563.257.257,0,0,1-.277,0l-7.192-4.664a1.318,1.318,0,0,0-1.648.175l-3.1,3.1a1.317,1.317,0,0,0-.175,1.648l4.665,7.194a.263.263,0,0,1,0,.277,22.462,22.462,0,0,0-2.563,6.18.261.261,0,0,1-.2.193l-8.382,1.79a1.318,1.318,0,0,0-1.043,1.288v4.384a1.315,1.315,0,0,0,1.043,1.287l8.387,1.79a.26.26,0,0,1,.2.193,22.463,22.463,0,0,0,2.557,6.182.262.262,0,0,1,0,.276l-4.663,7.193a1.317,1.317,0,0,0,.175,1.648l3.1,3.1a1.317,1.317,0,0,0,1.648.173L997.6,2399a.261.261,0,0,1,.277,0,22.432,22.432,0,0,0,6.182,2.56.266.266,0,0,1,.193.2l1.788,8.383a1.318,1.318,0,0,0,1.288,1.042h4.383a1.318,1.318,0,0,0,1.288-1.042l1.788-8.385a.266.266,0,0,1,.193-.2,22.421,22.421,0,0,0,6.18-2.56.264.264,0,0,1,.278,0l7.193,4.664a1.317,1.317,0,0,0,1.648-.173l3.1-3.1a1.317,1.317,0,0,0,.173-1.648l-4.663-7.193a.262.262,0,0,1,0-.278,22.439,22.439,0,0,0,2.56-6.18.265.265,0,0,1,.2-.193l8.383-1.789a1.317,1.317,0,0,0,1.042-1.288v-4.384A1.316,1.316,0,0,0,1040.027,2376.146Zm-30.51,15.577a12.1,12.1,0,1,1,12.1-12.1A12.1,12.1,0,0,1,1009.517,2391.722Z" transform="translate(-977.963 -2311.177)" fill="#6fff81" stroke="#240066" stroke-miterlimit="10" stroke-width="2.43"/>
      <path id="Pfad_17" data-name="Pfad 17" d="M984.761,2359.491a43.412,43.412,0,0,1,34.149-29.259" transform="translate(-973.431 -2323.071)" fill="none" stroke="#240066" stroke-linecap="round" stroke-miterlimit="10" stroke-width="2.43"/>
      <path id="Pfad_18" data-name="Pfad 18" d="M1048.1,2355.9a43.377,43.377,0,0,1-31.5,41.715" transform="translate(-952.206 -2305.958)" fill="none" stroke="#240066" stroke-linecap="round" stroke-miterlimit="10" stroke-width="2.43"/>
    </g>
  </g>
</svg>
