<svg xmlns="http://www.w3.org/2000/svg" width="197.48" height="53.466"
                            viewBox="0 0 197.48 53.466">
                            <g id="Gruppe_85" data-name="Gruppe 85" transform="translate(-1317 -3366.976)">
                                <path id="Pfad_185" data-name="Pfad 185"
                                    d="M575.95,103.9,564.3,105.03v6.87h-4.015v7.155H564.3v21.96H575.95v-21.96h4.359l.8-7.155H575.95Z"
                                    transform="translate(854.205 3263.081)" fill="#fff" />
                                <path id="Pfad_186" data-name="Pfad 186"
                                    d="M652.6,118.411v-2.67H641.66v29.114h11.534l0-13.722c0-6.508,9.16-4.518,9.16-4.518V115.033c-8.114,0-9.594,3-9.75,3.378"
                                    transform="translate(826.148 3259.24)" fill="#fff" />
                                <path id="Pfad_187" data-name="Pfad 187"
                                    d="M438.456,114.932c-.206.659-.413,1.318-.617,1.978l-2.657,8.558-1.328,4.28-1.086,3.568-6.123-18.384h-11.78l10.008,30.046h4.345l0,.012-.048.143c-.028.1-.069.19-.1.286q-.11.284-.24.556a6.621,6.621,0,0,1-1.375,1.9,5.932,5.932,0,0,1-1.816,1.209,5.474,5.474,0,0,1-2.052.441,5.242,5.242,0,0,1-1.066-.079,5.323,5.323,0,0,1-1.06-.282,7.023,7.023,0,0,1-2.051-1.21l-7.91,7.369a16.519,16.519,0,0,0,5.133,4.066,16.513,16.513,0,0,0,13.258.726,17.074,17.074,0,0,0,3.051-1.508,16.826,16.826,0,0,0,2.667-2.043,18.539,18.539,0,0,0,3.933-5.271q.368-.732.669-1.493c.1-.255.2-.506.284-.766l.131-.387.1-.3.674-2.14,2.7-8.559,1.348-4.279,1.325-4.287,2.648-8.574q.867-2.787,1.711-5.581Z"
                                    transform="translate(905.504 3259.275)" fill="#fff" />
                                <path id="Pfad_188" data-name="Pfad 188"
                                    d="M481.716,126.833a4.284,4.284,0,0,1,8.344,0Zm19.029,2.931a15.385,15.385,0,0,0-30.753,0v1.4c0,7.992,7.372,14.472,16.467,14.472a17.369,17.369,0,0,0,12.832-5.4L491.3,134a6.12,6.12,0,0,1-5.092,2.152c-3.631,0-4.424-2.595-4.424-2.595h18.729a23.224,23.224,0,0,0,.233-3.789"
                                    transform="translate(885.336 3259.293)" fill="#fff" />
                                <path id="Pfad_189" data-name="Pfad 189"
                                    d="M603.137,126.833a4.284,4.284,0,0,1,8.344,0Zm19.029,2.931a15.384,15.384,0,0,0-30.752,0v1.4c0,7.992,7.372,14.472,16.466,14.472a17.368,17.368,0,0,0,12.832-5.4L612.721,134a6.119,6.119,0,0,1-5.092,2.152c-3.631,0-4.424-2.595-4.424-2.595h18.729a23.139,23.139,0,0,0,.233-3.789"
                                    transform="translate(843.472 3259.293)" fill="#fff" />
                                <path id="Pfad_190" data-name="Pfad 190"
                                    d="M534.205,125.934c-1.323-.287-3.906-.775-3.906-1.258,0-.567,1.4-.793,2.746-.793a14.078,14.078,0,0,1,6.623,1.863l1.493.8,3.475-8.375-1.162-.674a21.341,21.341,0,0,0-10.391-2.518c-9.8,0-13.277,5.459-13.277,10.133,0,7.186,6.664,8.674,11.074,9.659,1.393.311,4,.887,4,1.39,0,.157-.035.562-2.784.562a15.115,15.115,0,0,1-7.9-2.359l-1.511-1-3.714,8.343,1.04.724c2.825,1.97,7.443,3.193,12.051,3.193,4.046,0,7.43-1,9.785-2.884a9.088,9.088,0,0,0,3.492-7.211c0-7.182-6.7-8.635-11.132-9.6"
                                    transform="translate(868.449 3259.259)" fill="#fff" />
                                <path id="Pfad_191" data-name="Pfad 191"
                                    d="M703.909,143.569l-14.024-10.637a.6.6,0,0,1,0-.961l14.024-10.637a.6.6,0,0,1,.968.481v21.274a.6.6,0,0,1-.968.481"
                                    transform="translate(809.603 3257.111)" fill="#fff" />
                            </g>
                        </svg>