<svg xmlns="http://www.w3.org/2000/svg" width="52.028" height="40.188" viewBox="0 0 52.028 40.188">
  <g id="Gruppe_98" data-name="Gruppe 98" transform="translate(-276.986 -5352)">
    <path id="Pfad_207" data-name="Pfad 207" d="M287.887-143.486h49.169a.415.415,0,0,1,.186.786l-5.585,2.792a28.48,28.48,0,0,1-12.739,3.007H306.025a28.48,28.48,0,0,1-12.739-3.007L287.7-142.7A.415.415,0,0,1,287.887-143.486Z" transform="translate(-9.471 5528.089)" fill="#6fff81" stroke="#240066" stroke-linecap="round" stroke-linejoin="round" stroke-width="2"/>
    <path id="Pfad_208" data-name="Pfad 208" d="M317.8-171.92A23.246,23.246,0,0,1,335.709-149.3v5.81" transform="translate(-9.471 5528.089)" fill="none" stroke="#240066" stroke-linecap="round" stroke-miterlimit="10" stroke-width="2"/>
    <path id="Pfad_209" data-name="Pfad 209" d="M289.234-143.486v-5.81a23.354,23.354,0,0,1,17.975-22.63" transform="translate(-9.471 5528.089)" fill="none" stroke="#240066" stroke-linecap="round" stroke-miterlimit="10" stroke-width="2"/>
    <path id="Pfad_210" data-name="Pfad 210" d="M310.135-150.793,307-173.452a1.439,1.439,0,0,1,1.426-1.637h8.154A1.44,1.44,0,0,1,318-173.452l-3.143,22.667a1.646,1.646,0,0,1-1.638,1.419l-1.465-.008A1.646,1.646,0,0,1,310.135-150.793Z" transform="translate(-9.471 5528.089)" fill="#6fff81" stroke="#240066" stroke-linecap="round" stroke-miterlimit="10" stroke-width="2"/>
    <g id="Gruppe_95" data-name="Gruppe 95" transform="translate(-9.471 5528.089)">
      <line id="Linie_53" data-name="Linie 53" x1="3.139" y1="17.763" transform="translate(302.686 -170.351)" fill="none" stroke="#240066" stroke-linecap="round" stroke-miterlimit="10" stroke-width="2"/>
      <line id="Linie_54" data-name="Linie 54" y1="17.763" x2="3.139" transform="translate(319.172 -170.351)" fill="none" stroke="#240066" stroke-linecap="round" stroke-miterlimit="10" stroke-width="2"/>
    </g>
  </g>
</svg>
